<?xml version="1.0" encoding="UTF-8" standalone="no"?>
<svg
   height="129.20605"
   width="133.19904"
   version="1.1"
   id="svg68"
   sodipodi:docname="webrtc_logo-2.svg"
   inkscape:version="1.1 (c4e8f9ed74, 2021-05-24)"
   xmlns:inkscape="http://www.inkscape.org/namespaces/inkscape"
   xmlns:sodipodi="http://sodipodi.sourceforge.net/DTD/sodipodi-0.dtd"
   xmlns="http://www.w3.org/2000/svg"
   xmlns:svg="http://www.w3.org/2000/svg"
   xmlns:rdf="http://www.w3.org/1999/02/22-rdf-syntax-ns#"
   xmlns:cc="http://creativecommons.org/ns#"
   xmlns:dc="http://purl.org/dc/elements/1.1/">
  <defs
     id="defs72" />
  <sodipodi:namedview
     id="namedview70"
     pagecolor="#ffffff"
     bordercolor="#666666"
     borderopacity="1.0"
     inkscape:pageshadow="2"
     inkscape:pageopacity="0.0"
     inkscape:pagecheckerboard="0"
     showgrid="false"
     inkscape:zoom="0.417"
     inkscape:cx="65.947242"
     inkscape:cy="105.51559"
     inkscape:window-width="1366"
     inkscape:window-height="715"
     inkscape:window-x="0"
     inkscape:window-y="24"
     inkscape:window-maximized="1"
     inkscape:current-layer="svg68"
     fit-margin-top="0"
     fit-margin-left="0"
     fit-margin-right="0"
     fit-margin-bottom="0" />
  <metadata
     id="metadata2">
    <rdf:RDF>
      <cc:Work
         rdf:about="">
        <dc:format>image/svg+xml</dc:format>
        <dc:type
           rdf:resource="http://purl.org/dc/dcmitype/StillImage" />
      </cc:Work>
    </rdf:RDF>
  </metadata>
  <g
     transform="matrix(0.55643,0,0,0.55643,-72.546526,-189.54081)"
     id="g48">
    <g
       transform="matrix(3.9483,0,0,-3.9483,263.23,518.98)"
       id="g6">
      <path
         d="m 0,0 c 0,-7.534 -6.107,-13.642 -13.641,-13.642 -7.535,0 -13.642,6.108 -13.642,13.642 0,7.534 6.107,13.642 13.642,13.642 C -6.107,13.642 0,7.534 0,0"
         fill="#ff6600"
         id="path4" />
    </g>
    <g
       transform="matrix(3.9483,0,0,-3.9483,369.76,443.57)"
       id="g10">
      <path
         d="m 0,0 c 0,-7.533 -6.107,-13.642 -13.641,-13.642 -7.535,0 -13.642,6.109 -13.642,13.642 0,7.534 6.107,13.643 13.642,13.643 C -6.107,13.643 0,7.534 0,0"
         fill="#ffcc00"
         id="path8" />
    </g>
    <g
       transform="matrix(3.9483,0,0,-3.9483,238.1,442.38)"
       id="g14">
      <path
         d="m 0,0 c 0,-7.533 -6.107,-13.642 -13.642,-13.642 -7.533,0 -13.641,6.109 -13.641,13.642 0,7.534 6.108,13.643 13.641,13.643 C -6.107,13.643 0,7.534 0,0"
         fill="#0089cc"
         id="path12" />
    </g>
    <g
       transform="matrix(3.9483,0,0,-3.9483,345.82,518.98)"
       id="g18">
      <path
         d="m 0,0 c 0,-7.534 -6.107,-13.642 -13.643,-13.642 -7.533,0 -13.641,6.108 -13.641,13.642 0,7.534 6.108,13.642 13.641,13.642 C -6.107,13.642 0,7.534 0,0"
         fill="#009939"
         id="path16" />
    </g>
    <g
       transform="matrix(3.9483,0,0,-3.9483,303.93,394.5)"
       id="g22">
      <path
         d="m 0,0 c 0,-7.534 -6.108,-13.642 -13.642,-13.642 -7.534,0 -13.642,6.108 -13.642,13.642 0,7.534 6.108,13.642 13.642,13.642 C -6.108,13.642 0,7.534 0,0"
         fill="#bf0000"
         id="path20" />
    </g>
    <g
       transform="matrix(3.9483,0,0,-3.9483,262.04,443.57)"
       id="g26">
      <path
         d="M 0,0 C 0,-0.287 0.025,-0.568 0.043,-0.851 6.094,0.545 10.61,5.955 10.61,12.43 c 0,0.287 -0.025,0.569 -0.043,0.852 C 4.516,11.885 0,6.475 0,0"
         fill="#fc0007"
         id="path24" />
    </g>
    <g
       transform="matrix(3.9483,0,0,-3.9483,269.15,470.24)"
       id="g30">
      <path
         d="m 0,0 c 2.351,-4.11 6.769,-6.887 11.843,-6.887 2.068,0 4.021,0.474 5.778,1.298 -2.35,4.11 -6.768,6.887 -11.843,6.887 C 3.71,1.298 1.757,0.824 0,0"
         fill="#1cd306"
         id="path28" />
    </g>
    <g
       transform="matrix(3.9483,0,0,-3.9483,238.1,518.98)"
       id="g34">
      <path
         d="M 0,0 C 0,-3.333 1.198,-6.383 3.184,-8.752 5.168,-6.383 6.366,-3.333 6.366,0 6.366,3.333 5.168,6.383 3.184,8.752 1.198,6.383 0,3.333 0,0"
         fill="#0f7504"
         id="path32" />
    </g>
    <g
       transform="matrix(3.9483,0,0,-3.9483,162.91,491.83)"
       id="g38">
      <path
         d="m 0,0 c 1.657,-0.716 3.481,-1.117 5.401,-1.117 5.024,0 9.401,2.723 11.769,6.766 C 15.513,6.365 13.688,6.765 11.769,6.765 6.745,6.765 2.367,4.042 0,0"
         fill="#0c5e87"
         id="path36" />
    </g>
    <g
       transform="matrix(3.9483,0,0,-3.9483,196.44,389.95)"
       id="g42">
      <path
         d="m 0,0 c -0.032,-0.38 -0.059,-0.762 -0.059,-1.151 0,-6.47 4.509,-11.875 10.553,-13.277 0.031,0.38 0.058,0.762 0.058,1.15 C 10.552,-6.808 6.044,-1.401 0,0"
         fill="#6b0001"
         id="path40" />
    </g>
    <g
       transform="matrix(3.9483,0,0,-3.9483,201.47,512.31)"
       id="g46">
      <path
         d="M 0,0 H -2.134 C -4.018,0 -5.55,1.527 -5.55,3.406 v 19.316 c 0,1.879 1.532,3.407 3.416,3.407 h 26.759 c 1.884,0 3.415,-1.528 3.415,-3.407 V 3.406 C 28.04,1.527 26.509,0 24.625,0 h -9.116 l -18.29,-8.966 z"
         fill="#ffffff"
         id="path44" />
    </g>
  </g>
</svg>
