<?xml version="1.0" encoding="UTF-8" standalone="no"?>
<svg
   xml:space="preserve"
   width="64"
   height="24.718"
   version="1.1"
   id="svg4"
   sodipodi:docname="phone-svgrepo-com.svg"
   inkscape:version="1.1.1 (3bf5ae0d25, 2021-09-20)"
   inkscape:export-filename="/home/radan/Projects/projet2-espa/webrtc-ts/webrtc-front-ts/src/assets/phone-svgrepo-com.png"
   inkscape:export-xdpi="360"
   inkscape:export-ydpi="360"
   xmlns:inkscape="http://www.inkscape.org/namespaces/inkscape"
   xmlns:sodipodi="http://sodipodi.sourceforge.net/DTD/sodipodi-0.dtd"
   xmlns="http://www.w3.org/2000/svg"
   xmlns:svg="http://www.w3.org/2000/svg"><defs
     id="defs8" /><sodipodi:namedview
     id="namedview6"
     pagecolor="#ffffff"
     bordercolor="#666666"
     borderopacity="1.0"
     inkscape:pageshadow="2"
     inkscape:pageopacity="0.0"
     inkscape:pagecheckerboard="0"
     showgrid="false"
     inkscape:zoom="2.4433594"
     inkscape:cx="40.722622"
     inkscape:cy="-2.8649081"
     inkscape:window-width="1366"
     inkscape:window-height="715"
     inkscape:window-x="0"
     inkscape:window-y="24"
     inkscape:window-maximized="1"
     inkscape:current-layer="svg4" /><path
     d="M3.481 24.303c4.104 1.264 11.945-.756 12.29-.846.994-.273 1.846-.743 2.465-1.362.92-.92 1.251-2.094.94-3.317-.14-1.584-.255-3.487-.194-3.86.54-2.82 1.985-4.006 4.896-4.006h16.244c2.892 0 4.356 1.2 4.895 4.002.06.377-.053 2.28-.193 3.865-.223.878-.114 1.742.317 2.504.574 1.014 1.67 1.786 3.1 2.177.33.087 8.174 2.107 12.276.843a4.947 4.947 0 0 0 2.036-1.225 4.908 4.908 0 0 0 1.446-3.49V16c.001-5.676-2.188-9.92-6.504-12.616C53.897 1.138 48.818 0 42.398 0H21.602C13.476 0 7.542 1.813 3.965 5.39 1.335 8.02 0 11.59 0 16v3.588c0 2.18 1.4 4.075 3.481 4.716Z"
     id="path2"
     style="fill:#ffffff;fill-opacity:1" /></svg>
