<svg width="412" height="348" style="clip-rule:evenodd;fill-rule:evenodd;image-rendering:optimizeQuality;shape-rendering:geometricPrecision;text-rendering:geometricPrecision" xmlns="http://www.w3.org/2000/svg"><path style="opacity:.00400002" d="M271.5 49.5a2484.47 2484.47 0 0 1 122-.5c-40.665.5-81.332.667-122 .5z" transform="translate(-121.157 -47.486)"/><path style="opacity:.00899999" d="M395.5 50.5c.751-1.073 1.751-1.24 3-.5a4.932 4.932 0 0 1-3 .5z" transform="translate(-121.157 -47.486)"/><path style="opacity:.431" fill="#97a0bf" d="M170.5 51.5v3h-4c-.233-3.454 1.1-4.454 4-3z" transform="translate(-121.157 -47.486)"/><path style="opacity:.00400002" fill="#949dbb" d="M171.5 51.5c-.667-1.333-.667-1.333 0 0z" transform="translate(-121.157 -47.486)"/><path style="opacity:.945" fill="#050506" d="M403.5 53.5c3.667 3 7 6.333 10 10 .82 2.312 1.653 4.646 2.5 7 .5 55.999.667 111.999.5 168v117a122.16 122.16 0 0 1-1 20c-1.21 6.089-4.21 11.089-9 15-.992-.172-1.658.162-2 1-1.653.16-2.986.826-4 2a2296.414 2296.414 0 0 1-135 0c-1.43-1.037-3.097-1.704-5-2 0-.667-.333-1-1-1-6.565-5.13-10.565-11.797-12-20-.07-9.21-.07-18.21 0-27 .99-5.81 1.323-11.81 1-18v-60a565.17 565.17 0 0 0-1-47c1.333-.667 1.333-1.333 0-2v-1c.268-1.599-.066-2.932-1-4a4694 4694 0 0 0 1-136c1.031-2.46 1.698-5.128 2-8 3.283-6.283 7.95-11.283 14-15a52.56 52.56 0 0 0 7-1.5c41.333-.667 82.667-.667 124 0 3.046.739 6.046 1.572 9 2.5z" transform="translate(-121.157 -47.486)"/><path style="opacity:.00799997" d="M399.5 51.5c.397-1.025 1.063-1.192 2-.5a2.427 2.427 0 0 1-2 .5z" transform="translate(-121.157 -47.486)"/><path style="opacity:.00799997" fill="#959ebc" d="M171.5 51.5c1.025.397 1.192 1.063.5 2a2.429 2.429 0 0 1-.5-2z" transform="translate(-121.157 -47.486)"/><path style="opacity:.012" d="M263.5 52.5c-.667-1.333-.667-1.333 0 0z" transform="translate(-121.157 -47.486)"/><path style="opacity:.01" fill="#959ebc" d="M165.5 54.5c-1.073-.75-1.24-1.75-.5-3 .483.948.649 1.948.5 3z" transform="translate(-121.157 -47.486)"/><path style="opacity:.012" d="M403.5 52.5c1.333.667 1.333.667 0 0z" transform="translate(-121.157 -47.486)"/><path style="opacity:.00799997" d="M405.5 53.5c1.333.667 1.333.667 0 0z" transform="translate(-121.157 -47.486)"/><path style="opacity:.00400002" fill="#959ebc" d="M165.5 54.5h1v1l-1-1z" transform="translate(-121.157 -47.486)"/><path style="opacity:.00400002" fill="#959dbd" d="M166.5 55.5a8.435 8.435 0 0 1 4 .5c-1.566.765-2.899.598-4-.5z" transform="translate(-121.157 -47.486)"/><path style="opacity:.006" d="M414.5 63.5h-1c.333-2.667.667-2.667 1 0z" transform="translate(-121.157 -47.486)"/><path style="opacity:.00799997" d="M249.5 63.5c1.333.667 1.333.667 0 0z" transform="translate(-121.157 -47.486)"/><path style="opacity:1" fill="#fdfcfc" d="M409.5 317.5h-55c-3.074-2.533-6.407-4.533-10-6v-4c-.239-8.884.428-17.551 2-26a430.882 430.882 0 0 0 19 15.5c9.418 5.895 16.918 4.061 22.5-5.5a322.272 322.272 0 0 0 10.5-42 84.727 84.727 0 0 0 3-16v-1a69.746 69.746 0 0 0 6-16.5c-1.093-3.083-2.26-2.917-3.5.5a44.403 44.403 0 0 0-.5-11 76.716 76.716 0 0 0-3.5 6c.653-3.31.486-6.644-.5-10a37.714 37.714 0 0 0-3.5 8 20.2 20.2 0 0 0-1.5-6 3.647 3.647 0 0 0-1.5 1 7232.978 7232.978 0 0 1-4.5 15c-.94-2.89-2.607-5.223-5-7l-1 2.5a78.77 78.77 0 0 1 3 13.5c-.667 0-1 .333-1 1h-3a779.87 779.87 0 0 1-9 34l-2 1a235.155 235.155 0 0 0-21-25.5 157.913 157.913 0 0 0-25-8.5 36.354 36.354 0 0 0-4.5-2l-1 2a32.462 32.462 0 0 1-.5-8c4.176-1.652 7.01-4.652 8.5-9a154.775 154.775 0 0 0-1.5-26c2.698-1.701 4.698-4.034 6-7a69.038 69.038 0 0 1-8-11.5c-2.213-.626-4.38-.459-6.5.5-3.619-4.298-7.786-4.964-12.5-2-3.652-1.785-6.652-1.118-9 2-9.174.462-12.174 4.795-9 13-4.869 6.018-3.536 9.685 4 11v4c-.823 4.839 1.177 7.173 6 7v23c-1.255.001-2.588.334-4 1a254.452 254.452 0 0 0-21 6.5c-4.731 2.956-7.898 7.123-9.5 12.5a372.322 372.322 0 0 0-4 57c.869 7.032 4.703 11.365 11.5 13h-13v-238c1.637-8.474 6.637-13.974 15-16.5 11-.667 22-.667 33 0 1.167.5 2 1.333 2.5 2.5l1 8a6.977 6.977 0 0 0 2.5 3.5 600.47 600.47 0 0 0 49 0l2.5-2.5c.038-4.063.872-7.897 2.5-11.5a210.49 210.49 0 0 1 29 0c7.833 2.5 13 7.667 15.5 15.5.5 79.666.667 159.333.5 239z" transform="translate(-121.157 -47.486)"/><path style="opacity:.012" d="M414.5 63.5c1.333.667 1.333.667 0 0z" transform="translate(-121.157 -47.486)"/><path style="opacity:.00799997" d="M249.5 67.5h-1c.333-2.667.667-2.667 1 0z" transform="translate(-121.157 -47.486)"/><path style="opacity:1" fill="#c4c7d2" d="M333.5 63.5c4.476.3 5.81 2.467 4 6.5-6.161.878-7.494-1.289-4-6.5z" transform="translate(-121.157 -47.486)"/><path style="opacity:.01" d="M248.5 67.5a2.429 2.429 0 0 1-.5 2c-.692-.937-.525-1.603.5-2z" transform="translate(-121.157 -47.486)"/><path style="opacity:.00400002" fill="#d2d6e1" d="M195.5 70.5c-.667-1.333-.667-1.333 0 0zM195.5 70.5c1.333.667 1.333.667 0 0z" transform="translate(-121.157 -47.486)"/><path style="opacity:.00899999" d="M247.5 75.5c-1.113-1.446-1.28-3.113-.5-5 .494 1.634.66 3.3.5 5z" transform="translate(-121.157 -47.486)"/><path style="opacity:.015" fill="#020202" d="M419.5 233.5c-.838.342-1.172 1.008-1 2a4542.428 4542.428 0 0 1-.5-165c.171 54.404.671 108.737 1.5 163z" transform="translate(-121.157 -47.486)"/><path style="opacity:.986" fill="#d5d8e4" d="M194.5 70.5c.65 1.935.983 3.935 1 6-.667 0-1 .333-1 1-.667 0-1 .333-1 1h-5c-2.85-6.3-.85-8.966 6-8z" transform="translate(-121.157 -47.486)"/><path style="opacity:.013" fill="#d2d5e2" d="M196.5 76.5a8.43 8.43 0 0 1 .5-4c.765 1.566.598 2.9-.5 4z" transform="translate(-121.157 -47.486)"/><path style="opacity:.00400002" fill="#d2d6e1" d="M184.5 73.5c1.333.667 1.333.667 0 0z" transform="translate(-121.157 -47.486)"/><path style="opacity:.00799997" fill="#d2d6e1" d="M195.5 76.5h1c-.185.67-.519.67-1 0z" transform="translate(-121.157 -47.486)"/><path style="opacity:.00400002" fill="#d2d6e1" d="M194.5 77.5h1c-.185.67-.519.67-1 0zM188.5 78.5c-.667.667-.667.667 0 0z" transform="translate(-121.157 -47.486)"/><path style="opacity:.00799997" fill="#d2d6e1" d="M193.5 78.5h1c-.185.67-.519.67-1 0z" transform="translate(-121.157 -47.486)"/><path style="opacity:.011" fill="#d2d5e1" d="M193.5 79.5c-1.101 1.098-2.434 1.265-4 .5a8.435 8.435 0 0 1 4-.5z" transform="translate(-121.157 -47.486)"/><path style="opacity:.00400002" fill="#969dbc" d="M441.5 83.5c.397-1.025 1.063-1.192 2-.5a2.427 2.427 0 0 1-2 .5z" transform="translate(-121.157 -47.486)"/><path style="opacity:.781" fill="#979fbe" d="M448.5 92.5c-.838.342-1.172 1.008-1 2-.667 0-1 .333-1 1-.992-.172-1.658.162-2 1h-4a6.544 6.544 0 0 0-3-3c.172-.992-.162-1.658-1-2 1.525-6.182 5.025-7.848 10.5-5a10.1 10.1 0 0 1 1.5 6z" transform="translate(-121.157 -47.486)"/><path style="opacity:1" fill="#cfd2df" d="M273.5 85.5c13.137-.37 16.471 5.13 10 16.5-10.391 3.281-15.224-.553-14.5-11.5a31.473 31.473 0 0 0 4.5-5z" transform="translate(-121.157 -47.486)"/><path style="opacity:1" fill="#f3f2f2" d="M395.5 166.5c3.605-2.04 5.272-5.206 5-9.5a742.902 742.902 0 0 0-5.5-26.5c-1.167-2.5-3-4.333-5.5-5.5a135.79 135.79 0 0 1-16-2.5v-8a18.404 18.404 0 0 0 7-2 40.282 40.282 0 0 0 1-12c3.671.502 6.005-.999 7-4.5-.732-1.766-2.065-2.932-4-3.5-.985-5.877-3.818-7.21-8.5-4-.602 2.72-.435 5.387.5 8-2.105-2.137-4.605-3.804-7.5-5-1.711-.06-3.044.606-4 2-2.401-1.102-4.901-1.269-7.5-.5-1.537 1.11-2.203 2.61-2 4.5-3.322-.011-4.989 1.655-5 5a358.65 358.65 0 0 1 1.5 10c.816 1.323 1.983 1.989 3.5 2a89.821 89.821 0 0 1 4 6.5 8.43 8.43 0 0 0 4 .5v3a35.493 35.493 0 0 0-12 3.5 271.985 271.985 0 0 1-11 12.5 228.357 228.357 0 0 0-6-16c.829-2.969.995-5.969.5-9a7.293 7.293 0 0 0-2 3c-.86-2.584-2.027-4.917-3.5-7a179.673 179.673 0 0 1 1-26.5c24-.667 48-.667 72 0a1085.96 1085.96 0 0 1 .5 80.5c-2.288 2.156-4.788 2.49-7.5 1z" transform="translate(-121.157 -47.486)"/><path style="opacity:.01" fill="#969ebc" d="M435.5 87.5c1.025.397 1.192 1.063.5 2a2.429 2.429 0 0 1-.5-2z" transform="translate(-121.157 -47.486)"/><path style="opacity:.01" fill="#959ebc" d="M449.5 92.5a8.43 8.43 0 0 1 .5-4c.765 1.566.598 2.9-.5 4z" transform="translate(-121.157 -47.486)"/><path style="opacity:.00899999" fill="#d2d5e1" d="M165.5 93.5c.751-1.073 1.751-1.24 3-.5a4.932 4.932 0 0 1-3 .5z" transform="translate(-121.157 -47.486)"/><path style="opacity:.00799997" fill="#959dbd" d="M436.5 91.5v2c-1.333-.667-1.333-1.333 0-2z" transform="translate(-121.157 -47.486)"/><path style="opacity:.00400002" fill="#959ebc" d="M448.5 92.5h1c.172.992-.162 1.658-1 2v-2z" transform="translate(-121.157 -47.486)"/><path style="opacity:1" fill="#f19027" d="M373.5 114.5a591.01 591.01 0 0 0 2.5-7c-1.113-1.211-2.28-1.211-3.5 0-2.39-1.767-4.057-4.1-5-7-3.442 1.891-7.109 2.891-11 3 .315 3.871-.018 7.538-1 11-1.517-.011-2.684-.677-3.5-2a358.65 358.65 0 0 0-1.5-10c.011-3.345 1.678-5.011 5-5-.203-1.89.463-3.39 2-4.5 2.599-.769 5.099-.602 7.5.5.956-1.394 2.289-2.06 4-2 2.895 1.196 5.395 2.863 7.5 5-.935-2.613-1.102-5.28-.5-8 4.682-3.21 7.515-1.877 8.5 4 1.935.568 3.268 1.734 4 3.5-.995 3.502-3.329 5.002-7 4.5a40.282 40.282 0 0 1-1 12 18.404 18.404 0 0 1-7 2z" transform="translate(-121.157 -47.486)"/><path style="opacity:.00799997" fill="#959ebc" d="M436.5 93.5h1c-.185.67-.519.67-1 0z" transform="translate(-121.157 -47.486)"/><path style="opacity:.006" fill="#d2d6e1" d="M162.5 94.5c1.025.397 1.192 1.063.5 2a2.429 2.429 0 0 1-.5-2z" transform="translate(-121.157 -47.486)"/><path style="opacity:.451" fill="#d5d8e4" d="M169.5 95.5c-.226 3.264-1.726 4.264-4.5 3a8.43 8.43 0 0 1-.5-4c1.792-.134 3.458.2 5 1z" transform="translate(-121.157 -47.486)"/><path style="opacity:.00400002" fill="#d2d5e1" d="M169.5 94.5c1.333.667 1.333.667 0 0z" transform="translate(-121.157 -47.486)"/><path style="opacity:.00799997" fill="#959ebb" d="M447.5 94.5h1c-.185.67-.519.67-1 0z" transform="translate(-121.157 -47.486)"/><path style="opacity:.00799997" fill="#959ebc" d="M446.5 95.5h1c-.185.67-.519.67-1 0z" transform="translate(-121.157 -47.486)"/><path style="opacity:.00400002" fill="#d2d6e1" d="M170.5 96.5c1.333.667 1.333.667 0 0z" transform="translate(-121.157 -47.486)"/><path style="opacity:.012" fill="#959ebc" d="M440.5 96.5c-.667.667-.667.667 0 0z" transform="translate(-121.157 -47.486)"/><path style="opacity:.00400002" fill="#959dbc" d="M444.5 97.5v-1h2c-.342.838-1.008 1.172-2 1z" transform="translate(-121.157 -47.486)"/><path style="opacity:.00799997" fill="#d1d5e0" d="M162.5 97.5c1.333.667 1.333.667 0 0z" transform="translate(-121.157 -47.486)"/><path style="opacity:1" fill="#cf523e" d="M376.5 96.5c1.846-.278 3.18.389 4 2-2.333 1.442-3.666.775-4-2z" transform="translate(-121.157 -47.486)"/><path style="opacity:.006" fill="#959dbc" d="M444.5 97.5c-.751 1.073-1.751 1.24-3 .5a4.932 4.932 0 0 1 3-.5z" transform="translate(-121.157 -47.486)"/><path style="opacity:.011" fill="#d2d5e2" d="M498.5 98.5c1.101-1.098 2.434-1.265 4-.5a8.435 8.435 0 0 1-4 .5z" transform="translate(-121.157 -47.486)"/><path style="opacity:.686" fill="#d5d8e4" d="M505.5 102.5v3c-.667 0-1 .333-1 1-.667 0-1 .333-1 1l-4 1a6.547 6.547 0 0 0-3-3c-.171-4.994 2.162-6.828 7-5.5.566.995 1.233 1.828 2 2.5z" transform="translate(-121.157 -47.486)"/><path style="opacity:.01" fill="#d2d6e1" d="M165.5 101.5c.397-1.025 1.063-1.192 2-.5a2.428 2.428 0 0 1-2 .5z" transform="translate(-121.157 -47.486)"/><path style="opacity:.00400002" fill="#d2d6e1" d="M506.5 102.5h-1c.333-2.667.667-2.667 1 0z" transform="translate(-121.157 -47.486)"/><path style="opacity:.006" fill="#d2d6e1" d="M506.5 102.5c1.025.397 1.192 1.063.5 2a2.428 2.428 0 0 1-.5-2z" transform="translate(-121.157 -47.486)"/><path style="opacity:.012" fill="#2f4476" d="M223.5 104.5c1.101-1.098 2.434-1.265 4-.5a8.43 8.43 0 0 1-4 .5z" transform="translate(-121.157 -47.486)"/><path style="opacity:.00400002" fill="#304577" d="M223.5 104.5v1c-.67-.481-.67-.815 0-1z" transform="translate(-121.157 -47.486)"/><path style="opacity:.00400002" fill="#d2d6e1" d="M496.5 105.5c-.667.667-.667.667 0 0z" transform="translate(-121.157 -47.486)"/><path style="opacity:.012" fill="#d2d6e1" d="M505.5 105.5c1.333.667 1.333.667 0 0z" transform="translate(-121.157 -47.486)"/><path style="opacity:.00400002" fill="#d2d6e1" d="M504.5 106.5h1c-.185.67-.519.67-1 0z" transform="translate(-121.157 -47.486)"/><path style="opacity:.012" fill="#304577" d="M219.5 107.5c1.333.667 1.333.667 0 0z" transform="translate(-121.157 -47.486)"/><path style="opacity:.915" fill="#304578" d="M223.5 105.5c4.794-.873 7.127 1.127 7 6-.838.342-1.172 1.008-1 2-.992-.172-1.658.162-2 1-2.358.247-4.358-.419-6-2 .172-.992-.162-1.658-1-2a18.924 18.924 0 0 1 3-5z" transform="translate(-121.157 -47.486)"/><path style="opacity:1" fill="#f3bb98" d="M373.5 114.5v8c-.538 3.541-2.538 5.875-6 7-2.814-.481-4.148-2.148-4-5 1.884-.212 3.217-1.212 4-3-1.057-.406-2.391-.406-4 0a8.43 8.43 0 0 1-4-.5 89.821 89.821 0 0 0-4-6.5c.982-3.462 1.315-7.129 1-11 3.891-.109 7.558-1.109 11-3 .943 2.9 2.61 5.233 5 7 1.22-1.211 2.387-1.211 3.5 0a591.01 591.01 0 0 1-2.5 7z" transform="translate(-121.157 -47.486)"/><path style="opacity:.00400002" fill="#d2d6e1" d="M496.5 107.5c1.333.667 1.333.667 0 0z" transform="translate(-121.157 -47.486)"/><path style="opacity:.00400002" fill="#d1d6e0" d="M503.5 107.5h1c-.185.67-.519.67-1 0z" transform="translate(-121.157 -47.486)"/><path style="opacity:.012" fill="#d1d6e0" d="M499.5 108.5c-.667.667-.667.667 0 0z" transform="translate(-121.157 -47.486)"/><path style="opacity:.012" fill="#d1d6e1" d="M503.5 108.5c-.667.667-.667.667 0 0z" transform="translate(-121.157 -47.486)"/><path style="opacity:.00799997" fill="#2f4476" d="M231.5 111.5a4.934 4.934 0 0 1 .5-3c.74 1.249.573 2.249-.5 3z" transform="translate(-121.157 -47.486)"/><path style="opacity:.00400002" fill="#d1d6e0" d="M500.5 109.5c1.333.667 1.333.667 0 0z" transform="translate(-121.157 -47.486)"/><path style="opacity:.012" fill="#2f4476" d="M220.5 110.5v2c-1.333-.667-1.333-1.333 0-2z" transform="translate(-121.157 -47.486)"/><path style="opacity:.00400002" fill="#304577" d="M220.5 112.5h1c-.185.67-.519.67-1 0z" transform="translate(-121.157 -47.486)"/><path style="opacity:.00400002" fill="#2f4576" d="M230.5 111.5h1c.172.992-.162 1.658-1 2v-2z" transform="translate(-121.157 -47.486)"/><path style="opacity:.00400002" fill="#304576" d="M229.5 113.5h1c-.185.67-.519.67-1 0z" transform="translate(-121.157 -47.486)"/><path style="opacity:.00400002" fill="#304577" d="M227.5 115.5v-1h2c-.342.838-1.008 1.172-2 1z" transform="translate(-121.157 -47.486)"/><path style="opacity:.01" fill="#304576" d="M227.5 115.5c-1.101 1.098-2.434 1.265-4 .5a8.43 8.43 0 0 1 4-.5z" transform="translate(-121.157 -47.486)"/><path style="opacity:.00799997" fill="#969dbc" d="M237.5 116.5c.751-1.073 1.751-1.24 3-.5a4.934 4.934 0 0 1-3 .5z" transform="translate(-121.157 -47.486)"/><path style="opacity:1" fill="#f3c0a1" d="M329.5 111.5c1.473 2.083 2.64 4.416 3.5 7a7.293 7.293 0 0 1 2-3 20.683 20.683 0 0 1-.5 9c-3.503-.371-6.503.629-9 3a48.915 48.915 0 0 0-3-9c.352-1.286 1.018-2.119 2-2.5-1.234-2.338-.568-4.171 2-5.5a22.226 22.226 0 0 1 2.5 6 12.93 12.93 0 0 0 .5-5z" transform="translate(-121.157 -47.486)"/><path style="opacity:.00400002" fill="#959ebc" d="M236.5 118.5c-.667-1.333-.667-1.333 0 0z" transform="translate(-121.157 -47.486)"/><path style="opacity:.434" fill="#979fbe" d="M237.5 121.5a5.727 5.727 0 0 1-1-3c1.208-.734 2.541-1.067 4-1 .412 2.473-.588 3.806-3 4z" transform="translate(-121.157 -47.486)"/><path style="opacity:.00799997" fill="#959ebb" d="M241.5 117.5c1.333.667 1.333.667 0 0z" transform="translate(-121.157 -47.486)"/><path style="opacity:.00400002" fill="#959ebc" d="M235.5 118.5c-.667.667-.667.667 0 0z" transform="translate(-121.157 -47.486)"/><path style="opacity:.00400002" fill="#959dbb" d="M241.5 119.5c1.333.667 1.333.667 0 0z" transform="translate(-121.157 -47.486)"/><path style="opacity:.00700001" fill="#969dbd" d="M465.5 120.5c.751-1.073 1.751-1.24 3-.5a4.934 4.934 0 0 1-3 .5z" transform="translate(-121.157 -47.486)"/><path style="opacity:.00400002" fill="#949dbb" d="M237.5 121.5c-.667.667-.667.667 0 0z" transform="translate(-121.157 -47.486)"/><path style="opacity:1" fill="#15100d" d="M363.5 124.5v-3c1.609-.406 2.943-.406 4 0-.783 1.788-2.116 2.788-4 3z" transform="translate(-121.157 -47.486)"/><path style="opacity:.00400002" fill="#959ebc" d="M469.5 121.5c1.333.667 1.333.667 0 0z" transform="translate(-121.157 -47.486)"/><path style="opacity:.00799997" fill="#959ebc" d="M238.5 122.5c1.333.667 1.333.667 0 0z" transform="translate(-121.157 -47.486)"/><path style="opacity:.43" fill="#969fbe" d="M469.5 124.5c-.667 0-1 .333-1 1-4.359-.354-4.859-1.688-1.5-4 1.31.63 2.144 1.63 2.5 3z" transform="translate(-121.157 -47.486)"/><path style="opacity:1" fill="#5564a9" d="M373.5 122.5a135.79 135.79 0 0 0 16 2.5c2.5 1.167 4.333 3 5.5 5.5a742.902 742.902 0 0 1 5.5 26.5c.272 4.294-1.395 7.46-5 9.5a396.736 396.736 0 0 0-23.5 3 14.692 14.692 0 0 1-4.5-1l-1-2a343.58 343.58 0 0 0-1-4c.318-1.147.984-1.981 2-2.5a638.08 638.08 0 0 0 19-6.5 17.54 17.54 0 0 1 6 3c1.021-.502 1.188-1.168.5-2-2-.667-3.333-2-4-4l-2 2a141.43 141.43 0 0 1-4-11 29.927 29.927 0 0 1-2 9c-5.249 4.779-11.082 8.446-17.5 11-3.585-.348-6.918.319-10 2a108.282 108.282 0 0 0-3-14c1.239-2.207 1.739-4.541 1.5-7a86.276 86.276 0 0 1-9.5 12.5c-1.865 1.301-3.865 1.635-6 1-4.272-6.723-7.606-13.223-10-19.5-1.506-2.866-1.84-5.866-1-9 2.497-2.371 5.497-3.371 9-3a228.357 228.357 0 0 1 6 16 271.985 271.985 0 0 0 11-12.5 35.493 35.493 0 0 1 12-3.5c-.148 2.852 1.186 4.519 4 5 3.462-1.125 5.462-3.459 6-7z" transform="translate(-121.157 -47.486)"/><path style="opacity:.00400002" fill="#959ebc" d="M469.5 124.5c1.333.667 1.333.667 0 0z" transform="translate(-121.157 -47.486)"/><path style="opacity:.00400002" fill="#959dbc" d="M468.5 125.5h1c-.185.67-.519.67-1 0z" transform="translate(-121.157 -47.486)"/><path style="opacity:.01" fill="#959ebc" d="M468.5 126.5c-.751 1.073-1.751 1.24-3 .5a4.934 4.934 0 0 1 3-.5z" transform="translate(-121.157 -47.486)"/><path style="opacity:1" fill="#0b0b14" d="M365.5 139.5c1.086.12 1.753.787 2 2-.804 2.457-1.804 2.457-3 0 .363-.683.696-1.35 1-2z" transform="translate(-121.157 -47.486)"/><path style="opacity:.00400002" fill="#959ebb" d="M175.5 141.5c1.333.667 1.333.667 0 0z" transform="translate(-121.157 -47.486)"/><path style="opacity:.00400002" fill="#959ebc" d="M178.5 141.5c1.333.667 1.333.667 0 0z" transform="translate(-121.157 -47.486)"/><path style="opacity:.00700001" fill="#969ebc" d="M180.5 146.5a4.934 4.934 0 0 1 .5-3c.74 1.249.573 2.249-.5 3z" transform="translate(-121.157 -47.486)"/><path style="opacity:.396" fill="#98a0bf" d="M179.5 146.5c-.667 0-1 .333-1 1h-2c-.734-1.208-1.067-2.541-1-4h4v3z" transform="translate(-121.157 -47.486)"/><path style="opacity:.012" fill="#969dbc" d="M527.5 146.5c.397-1.025 1.063-1.192 2-.5a2.428 2.428 0 0 1-2 .5z" transform="translate(-121.157 -47.486)"/><path style="opacity:.00400002" fill="#959ebb" d="M179.5 146.5h1c-.185.67-.519.67-1 0z" transform="translate(-121.157 -47.486)"/><path style="opacity:.00400002" fill="#959ebc" d="M176.5 147.5v1c-.67-.481-.67-.815 0-1z" transform="translate(-121.157 -47.486)"/><path style="opacity:.00400002" fill="#959dbb" d="M178.5 147.5h1c-.185.67-.519.67-1 0z" transform="translate(-121.157 -47.486)"/><path style="opacity:.00400002" fill="#959ebc" d="M176.5 148.5c1.333.667 1.333.667 0 0z" transform="translate(-121.157 -47.486)"/><path style="opacity:.01" fill="#959ebc" d="M524.5 148.5c1.025.397 1.192 1.063.5 2a2.428 2.428 0 0 1-.5-2z" transform="translate(-121.157 -47.486)"/><path style="opacity:.012" fill="#969dbd" d="M531.5 148.5c1.025.397 1.192 1.063.5 2a2.428 2.428 0 0 1-.5-2z" transform="translate(-121.157 -47.486)"/><path style="opacity:1" fill="#31406e" d="M366.5 166.5c-1.75-1.159-2.75-2.826-3-5 6.418-2.554 12.251-6.221 17.5-11a29.927 29.927 0 0 0 2-9 141.43 141.43 0 0 0 4 11l2-2c.667 2 2 3.333 4 4 .688.832.521 1.498-.5 2a17.54 17.54 0 0 0-6-3 638.08 638.08 0 0 1-19 6.5c-1.016.519-1.682 1.353-2 2.5a343.58 343.58 0 0 1 1 4z" transform="translate(-121.157 -47.486)"/><path style="opacity:1" fill="#99a1c1" d="M527.5 147.5h3c-.074 4.041-1.407 4.708-4 2 .363-.683.696-1.35 1-2z" transform="translate(-121.157 -47.486)"/><path style="opacity:.012" fill="#2f4476" d="M515.5 153.5c.397-1.025 1.063-1.192 2-.5a2.428 2.428 0 0 1-2 .5z" transform="translate(-121.157 -47.486)"/><path style="opacity:.012" fill="#959dbc" d="M527.5 153.5c.397-1.025 1.063-1.192 2-.5a2.428 2.428 0 0 1-2 .5z" transform="translate(-121.157 -47.486)"/><path style="opacity:.00400002" fill="#304577" d="M519.5 154.5c-.667-1.333-.667-1.333 0 0z" transform="translate(-121.157 -47.486)"/><path style="opacity:1" fill="#324679" d="M350.5 149.5c-3.156 4.662-7.323 7.996-12.5 10a9.62 9.62 0 0 1-4.5-1.5c-3.95-6.629-6.283-13.796-7-21.5 2.394 6.277 5.728 12.777 10 19.5 2.135.635 4.135.301 6-1a86.276 86.276 0 0 0 9.5-12.5c.239 2.459-.261 4.793-1.5 7z" transform="translate(-121.157 -47.486)"/><path style="opacity:.792" fill="#304578" d="M515.5 153.5c3.393 1.526 4.726 4.193 4 8-.667 0-1 .333-1 1-.667 0-1 .333-1 1h-4a6.547 6.547 0 0 0-3-3c-.287-3.715 1.38-6.048 5-7z" transform="translate(-121.157 -47.486)"/><path style="opacity:.00400002" fill="#304476" d="M519.5 154.5c1.333.667 1.333.667 0 0z" transform="translate(-121.157 -47.486)"/><path style="opacity:.00799997" fill="#2f4476" d="M520.5 156.5c1.025.397 1.192 1.063.5 2a2.428 2.428 0 0 1-.5-2z" transform="translate(-121.157 -47.486)"/><path style="opacity:.00799997" fill="#304577" d="M509.5 160.5c-1.073-.751-1.24-1.751-.5-3 .483.948.649 1.948.5 3z" transform="translate(-121.157 -47.486)"/><path style="opacity:.679" fill="#d5d8e4" d="M215.5 167.5c-.667 0-1 .333-1 1a20.69 20.69 0 0 1-5 1c-1.525-1.716-2.525-3.716-3-6 5.703-4.822 8.703-3.489 9 4z" transform="translate(-121.157 -47.486)"/><path style="opacity:.00799997" fill="#304577" d="M509.5 160.5h1c-.185.67-.519.67-1 0z" transform="translate(-121.157 -47.486)"/><path style="opacity:.00400002" fill="#304476" d="M520.5 161.5a2.428 2.428 0 0 1 .5-2c.692.937.525 1.603-.5 2z" transform="translate(-121.157 -47.486)"/><path style="opacity:.00799997" fill="#304577" d="M519.5 161.5h1c-.185.67-.519.67-1 0z" transform="translate(-121.157 -47.486)"/><path style="opacity:.012" fill="#d2d6e1" d="M206.5 163.5c-.667-1.333-.667-1.333 0 0z" transform="translate(-121.157 -47.486)"/><path style="opacity:.00899999" fill="#d2d5e2" d="M216.5 167.5a12.93 12.93 0 0 1 .5-5c.78 1.887.613 3.554-.5 5z" transform="translate(-121.157 -47.486)"/><path style="opacity:.00799997" fill="#304577" d="M518.5 162.5h1c-.185.67-.519.67-1 0z" transform="translate(-121.157 -47.486)"/><path style="opacity:1" fill="#f4bfa0" d="M363.5 161.5c.25 2.174 1.25 3.841 3 5l1 2a40.936 40.936 0 0 0-13 7c-1.094-1.368-.76-2.535 1-3.5-1.547-.333-2.88.167-4 1.5-1.094-1.368-.76-2.535 1-3.5h-4l6-4c-6.005 1.011-6.338.177-1-2.5 3.082-1.681 6.415-2.348 10-2z" transform="translate(-121.157 -47.486)"/><path style="opacity:.00799997" fill="#2f4477" d="M513.5 163.5v1c-.67-.481-.67-.815 0-1z" transform="translate(-121.157 -47.486)"/><path style="opacity:.00799997" fill="#304577" d="M517.5 163.5h1c-.185.67-.519.67-1 0z" transform="translate(-121.157 -47.486)"/><path style="opacity:.00400002" fill="#d1d5e0" d="M204.5 164.5c1.333.667 1.333.667 0 0z" transform="translate(-121.157 -47.486)"/><path style="opacity:.00700001" fill="#304577" d="M513.5 164.5a4.934 4.934 0 0 1 3 .5c-1.249.74-2.249.573-3-.5z" transform="translate(-121.157 -47.486)"/><path style="opacity:1" fill="#0d0c0c" d="M325.5 187.5c-7.103.782-12.769-1.718-17-7.5a18.453 18.453 0 0 0-6-.5c.116 6.189-.551 12.189-2 18a13.139 13.139 0 0 1-6-2c-1.573.252-2.906.918-4 2v-4c-7.536-1.315-8.869-4.982-4-11-3.174-8.205-.174-12.538 9-13 2.348-3.118 5.348-3.785 9-2 4.714-2.964 8.881-2.298 12.5 2 2.12-.959 4.287-1.126 6.5-.5a69.038 69.038 0 0 0 8 11.5c-1.302 2.966-3.302 5.299-6 7z" transform="translate(-121.157 -47.486)"/><path style="opacity:.012" fill="#d2d6e1" d="M205.5 166.5c1.333.667 1.333.667 0 0z" transform="translate(-121.157 -47.486)"/><path style="opacity:.00799997" fill="#d2d6e1" d="M215.5 167.5h1c-.185.67-.519.67-1 0z" transform="translate(-121.157 -47.486)"/><path style="opacity:.00899999" fill="#d2d6e1" d="M454.5 168.5c.751-1.073 1.751-1.24 3-.5a4.934 4.934 0 0 1-3 .5z" transform="translate(-121.157 -47.486)"/><path style="opacity:.00799997" fill="#d2d6e1" d="M214.5 168.5h1c-.185.67-.519.67-1 0z" transform="translate(-121.157 -47.486)"/><path style="opacity:.012" fill="#d1d5e1" d="M209.5 169.5v1c-.67-.481-.67-.815 0-1z" transform="translate(-121.157 -47.486)"/><path style="opacity:.00799997" fill="#d2d6e1" d="M214.5 169.5c-.667.667-.667.667 0 0z" transform="translate(-121.157 -47.486)"/><path style="opacity:1" fill="#84868d" d="M310.5 171.5a52.56 52.56 0 0 1-7-1.5c2.712-.826 5.045-.326 7 1.5z" transform="translate(-121.157 -47.486)"/><path style="opacity:.395" fill="#d4d7e3" d="M458.5 173.5c-.667 0-1 .333-1 1h-3c-1.768-3.911-.435-5.578 4-5v4z" transform="translate(-121.157 -47.486)"/><path style="opacity:.00700001" fill="#d3d5e1" d="M209.5 170.5a4.934 4.934 0 0 1 3 .5c-1.249.74-2.249.573-3-.5z" transform="translate(-121.157 -47.486)"/><path style="opacity:.006" fill="#d2d6e1" d="M451.5 170.5c1.025.397 1.192 1.063.5 2a2.428 2.428 0 0 1-.5-2z" transform="translate(-121.157 -47.486)"/><path style="opacity:.01" fill="#d2d6e1" d="M459.5 173.5a4.934 4.934 0 0 1 .5-3c.74 1.249.573 2.249-.5 3z" transform="translate(-121.157 -47.486)"/><path style="opacity:.858" fill="#979fbf" d="M158.5 175.5a21.435 21.435 0 0 1-1 7 21.435 21.435 0 0 1-7 1 6.547 6.547 0 0 0-3-3c.729-8.403 4.396-10.069 11-5z" transform="translate(-121.157 -47.486)"/><path style="opacity:1" fill="#92949d" d="M309.5 175.5a31.568 31.568 0 0 0-9-2.5c3.642-1.07 6.642-.236 9 2.5z" transform="translate(-121.157 -47.486)"/><path style="opacity:1" fill="#8f9199" d="m310.5 171.5 11 5.5c-4.449-.224-8.115-2.058-11-5.5z" transform="translate(-121.157 -47.486)"/><path style="opacity:.00400002" fill="#d2d6e1" d="M458.5 173.5h1c-.185.67-.519.67-1 0z" transform="translate(-121.157 -47.486)"/><path style="opacity:.00400002" fill="#959ebc" d="M159.5 175.5h-1c.333-2.667.667-2.667 1 0z" transform="translate(-121.157 -47.486)"/><path style="opacity:.00400002" fill="#d2d6e1" d="M454.5 174.5c-.667.667-.667.667 0 0z" transform="translate(-121.157 -47.486)"/><path style="opacity:.00799997" fill="#d2d6e1" d="M457.5 174.5h1c-.185.67-.519.67-1 0z" transform="translate(-121.157 -47.486)"/><path style="opacity:.01" fill="#969dbd" d="M159.5 175.5c1.113 1.446 1.28 3.113.5 5a12.93 12.93 0 0 1-.5-5z" transform="translate(-121.157 -47.486)"/><path style="opacity:1" fill="#9c9ea7" d="M309.5 175.5c2.927 1.257 5.261 3.257 7 6-2.927-1.257-5.261-3.257-7-6z" transform="translate(-121.157 -47.486)"/><path style="opacity:.006" fill="#d2d6e1" d="M457.5 175.5c-.397 1.025-1.063 1.192-2 .5a2.428 2.428 0 0 1 2-.5z" transform="translate(-121.157 -47.486)"/><path style="opacity:1" fill="#f5a56b" d="M325.5 187.5a154.775 154.775 0 0 1 1.5 26c-1.49 4.348-4.324 7.348-8.5 9h-1c-4.581.577-8.748-.423-12.5-3 .946 7.096 5.113 10.429 12.5 10-1.806 9.204-6.806 11.371-15 6.5-2.895-2.322-4.895-5.155-6-8.5v-23c-4.823.173-6.823-2.161-6-7 1.094-1.082 2.427-1.748 4-2a13.139 13.139 0 0 0 6 2c1.449-5.811 2.116-11.811 2-18a18.453 18.453 0 0 1 6 .5c4.231 5.782 9.897 8.282 17 7.5z" transform="translate(-121.157 -47.486)"/><path style="opacity:.00799997" fill="#949ebc" d="M147.5 180.5c-.667.667-.667.667 0 0z" transform="translate(-121.157 -47.486)"/><path style="opacity:.00400002" fill="#959ebc" d="M158.5 181.5c1.333.667 1.333.667 0 0z" transform="translate(-121.157 -47.486)"/><path style="opacity:.00899999" fill="#b4bfdf" d="M211.5 182.5a4.934 4.934 0 0 1-3-.5c1.249-.74 2.249-.573 3 .5z" transform="translate(-121.157 -47.486)"/><path style="opacity:.01" fill="#b5bfdf" d="M215.5 182.5c1.101-1.098 2.434-1.265 4-.5a8.43 8.43 0 0 1-4 .5z" transform="translate(-121.157 -47.486)"/><path style="opacity:.00400002" fill="#959ebc" d="M147.5 182.5c1.333.667 1.333.667 0 0z" transform="translate(-121.157 -47.486)"/><path style="opacity:.00799997" fill="#959ebc" d="M157.5 182.5h1c-.185.67-.519.67-1 0z" transform="translate(-121.157 -47.486)"/><path style="opacity:.012" fill="#b3bfdf" d="M206.5 182.5c1.333.667 1.333.667 0 0z" transform="translate(-121.157 -47.486)"/><path style="opacity:.981" fill="#b5bfe0" d="M211.5 182.5c3.693.56 7.36 1.227 11 2 1.956.992 3.956 1.992 6 3 7.532 5.528 13.199 12.528 17 21-.237 1.291.096 2.291 1 3-.268 1.599.066 2.932 1 4v3a565.17 565.17 0 0 1 1 47c-5.607-24.978-15.774-47.978-30.5-69l-3-3c12.436 17.547 21.77 36.881 28 58a412.161 412.161 0 0 0 5.5 22v20c-.838-.342-1.172-1.008-1-2 0-.667-.333-1-1-1v-1c.237-1.291-.096-2.291-1-3 .09-2.652-.576-4.985-2-7-.233-3.042-1.233-5.708-3-8 .172-.992-.162-1.658-1-2 .098-2.053-.569-3.72-2-5 .172-.992-.162-1.658-1-2-.579-2.831-1.912-5.164-4-7 .172-.992-.162-1.658-1-2-.763-1.868-1.763-3.535-3-5-.432-1.21-1.099-2.21-2-3 0-.667-.333-1-1-1 .073-1.527-.594-2.527-2-3 0-.667-.333-1-1-1 .073-1.527-.594-2.527-2-3 0-.667-.333-1-1-1-.58-2.249-1.913-3.915-4-5-.943-2.609-2.61-4.609-5-6 0-.667-.333-1-1-1 .073-1.527-.594-2.527-2-3 0-.667-.333-1-1-1 .172-.992-.162-1.658-1-2 0-.667-.333-1-1-1-1.159-3.651-2.826-6.985-5-10-.221-2.567-.888-4.901-2-7 .571-9.232 5.237-15.232 14-18z" transform="translate(-121.157 -47.486)"/><path style="opacity:1" fill="#81838a" d="M316.5 181.5a99.899 99.899 0 0 0 8 1.5 12.494 12.494 0 0 1-7 0c-.556-.383-.889-.883-1-1.5z" transform="translate(-121.157 -47.486)"/><path style="opacity:.00400002" fill="#949dbb" d="M150.5 183.5v1c-.67-.481-.67-.815 0-1z" transform="translate(-121.157 -47.486)"/><path style="opacity:.00400002" fill="#959ebb" d="M157.5 183.5c-.667.667-.667.667 0 0z" transform="translate(-121.157 -47.486)"/><path style="opacity:.00799997" fill="#b5bfdf" d="M222.5 184.5c.397-1.025 1.063-1.192 2-.5a2.428 2.428 0 0 1-2 .5z" transform="translate(-121.157 -47.486)"/><path style="opacity:.00899999" fill="#969ebc" d="M150.5 184.5a12.93 12.93 0 0 1 5 .5c-1.887.78-3.554.613-5-.5z" transform="translate(-121.157 -47.486)"/><path style="opacity:.012" fill="#b4bedf" d="M228.5 186.5c1.333.667 1.333.667 0 0z" transform="translate(-121.157 -47.486)"/><path style="opacity:.00799997" fill="#b4bfdf" d="M230.5 187.5c1.333.667 1.333.667 0 0z" transform="translate(-121.157 -47.486)"/><path style="opacity:.00400002" fill="#d2d6e1" d="M480.5 187.5c1.333.667 1.333.667 0 0z" transform="translate(-121.157 -47.486)"/><path style="opacity:.00899999" fill="#d3d5e1" d="M161.5 189.5c1.101-1.098 2.434-1.265 4-.5a8.43 8.43 0 0 1-4 .5z" transform="translate(-121.157 -47.486)"/><path style="opacity:.012" fill="#d2d6e1" d="M478.5 188.5c1.333.667 1.333.667 0 0z" transform="translate(-121.157 -47.486)"/><path style="opacity:.984" fill="#d3d6e2" d="M161.5 189.5c2.405 1.268 5.072 1.935 8 2a116.605 116.605 0 0 0 13 6c4.976 3.97 9.976 7.97 15 12 0 .667.333 1 1 1a44.424 44.424 0 0 0 6 7c.667 0 1 .333 1 1-.172.992.162 1.658 1 2 .667 0 1 .333 1 1-.073 1.527.594 2.527 2 3 .667 0 1 .333 1 1 .747 2.862 2.414 4.862 5 6-.477 2.741.523 5.074 3 7 0 .667.333 1 1 1-.172.992.162 1.658 1 2-.073 1.527.594 2.527 2 3-.172.992.162 1.658 1 2 0 .667.333 1 1 1 .16 1.653.826 2.986 2 4 .61 1.934 1.61 3.601 3 5-.172.992.162 1.658 1 2a36.077 36.077 0 0 0 4 7c-.172.992.162 1.658 1 2-.172.992.162 1.658 1 2-.172.992.162 1.658 1 2-.172.992.162 1.658 1 2l3.5 7c.383-.556.883-.889 1.5-1-.874 2.633-.207 4.966 2 7-.237 1.291.096 2.291 1 3v1c.667 0 1 .333 1 1-.172.992.162 1.658 1 2v32c-1-.333-1.667-1-2-2 0-.667-.333-1-1-1 0-.667-.333-1-1-1 0-.667-.333-1-1-1 0-.667-.333-1-1-1a101.97 101.97 0 0 0-11-13c0-.667-.333-1-1-1 0-.667-.333-1-1-1 0-.667-.333-1-1-1-1.411-2.414-3.411-4.081-6-5 0-.667-.333-1-1-1 0-.667-.333-1-1-1 0-.667-.333-1-1-1 0-.667-.333-1-1-1 0-.667-.333-1-1-1-.473-1.406-1.473-2.073-3-2 0-.667-.333-1-1-1 0-.667-.333-1-1-1-.473-1.406-1.473-2.073-3-2 0-.667-.333-1-1-1 0-.667-.333-1-1-1-.342-.838-1.008-1.172-2-1 0-.667-.333-1-1-1-.473-1.406-1.473-2.073-3-2 0-.667-.333-1-1-1-.342-.838-1.008-1.172-2-1 0-.667-.333-1-1-1-.342-.838-1.008-1.172-2-1 0-.667-.333-1-1-1-.473-1.406-1.473-2.073-3-2-.342-.838-1.008-1.172-2-1 0-.667-.333-1-1-1-.342-.838-1.008-1.172-2-1 0-.667-.333-1-1-1-.342-.838-1.008-1.172-2-1-1.399-1.39-3.066-2.39-5-3a36.077 36.077 0 0 0-7-4c-3.682-2.508-7.682-4.508-12-6a24.766 24.766 0 0 0-8-5 64.322 64.322 0 0 0-9-6 132.754 132.754 0 0 1-16.5-17c-8.239-16.617-4.072-29.117 12.5-37.5a103.417 103.417 0 0 1 23-1.5z" transform="translate(-121.157 -47.486)"/><path style="opacity:.012" fill="#d2d6e1" d="M166.5 190.5c.397-1.025 1.063-1.192 2-.5a2.428 2.428 0 0 1-2 .5z" transform="translate(-121.157 -47.486)"/><path style="opacity:.012" fill="#d2d5e1" d="M169.5 191.5c.397-1.025 1.063-1.192 2-.5a2.428 2.428 0 0 1-2 .5z" transform="translate(-121.157 -47.486)"/><path style="opacity:1" fill="#7b7d84" d="M300.5 183.5c1.025.397 1.192 1.063.5 2l-3.5 3.5 2 1c-1.562 2.115-3.562 3.115-6 3a3.647 3.647 0 0 1-1-1.5 45.408 45.408 0 0 0 8-8z" transform="translate(-121.157 -47.486)"/><path style="opacity:.701" fill="#d5d8e4" d="M485.5 192.5a20.69 20.69 0 0 1-1 5c-.667 0-1 .333-1 1-5.001.829-7.168-1.171-6.5-6a13.92 13.92 0 0 1 4-3 30.786 30.786 0 0 1 4.5 3z" transform="translate(-121.157 -47.486)"/><path style="opacity:.012" fill="#d2d6e1" d="M485.5 191.5c1.333.667 1.333.667 0 0z" transform="translate(-121.157 -47.486)"/><path style="opacity:.00899999" fill="#b4bedf" d="M196.5 192.5c1.073.751 1.24 1.751.5 3a4.934 4.934 0 0 1-.5-3z" transform="translate(-121.157 -47.486)"/><path style="opacity:1" fill="#69472d" d="M306.5 192.5c1.929-.269 3.595.231 5 1.5l-2.5.5c-1.376-.184-2.209-.851-2.5-2z" transform="translate(-121.157 -47.486)"/><path style="opacity:1" fill="#543925" d="M321.5 192.5c3.839.112 3.839.779 0 2-.963-.47-.963-1.137 0-2z" transform="translate(-121.157 -47.486)"/><path style="opacity:.006" fill="#d2d6e1" d="M486.5 193.5c1.025.397 1.192 1.063.5 2a2.428 2.428 0 0 1-.5-2z" transform="translate(-121.157 -47.486)"/><path style="opacity:.016" fill="#d2d6e1" d="M182.5 196.5c1.333.667 1.333.667 0 0z" transform="translate(-121.157 -47.486)"/><path style="opacity:.00799997" fill="#d2d6e1" d="M485.5 196.5c1.333.667 1.333.667 0 0zM484.5 197.5h1c-.185.67-.519.67-1 0z" transform="translate(-121.157 -47.486)"/><path style="opacity:1" fill="#0e0804" d="M322.5 198.5c1.837.139 2.17.806 1 2-.798-.457-1.131-1.124-1-2z" transform="translate(-121.157 -47.486)"/><path style="opacity:.00799997" fill="#d1d5e0" d="M483.5 198.5h1c-.185.67-.519.67-1 0z" transform="translate(-121.157 -47.486)"/><path style="opacity:.01" fill="#d3d6e1" d="M483.5 199.5c-1.446 1.113-3.113 1.28-5 .5a12.93 12.93 0 0 1 5-.5z" transform="translate(-121.157 -47.486)"/><path style="opacity:.00799997" fill="#b4bedf" d="M197.5 200.5a8.43 8.43 0 0 1-.5 4c-.765-1.566-.598-2.899.5-4z" transform="translate(-121.157 -47.486)"/><path style="opacity:1" fill="#4b3321" d="M307.5 198.5c1.91-1.205 3.243-.538 4 2-1 1.333-2 1.333-3 0 1.481-1.444 1.148-2.111-1-2z" transform="translate(-121.157 -47.486)"/><path style="opacity:.00799997" fill="#bfc6e0" d="M199.5 207.5c.237 1.291-.096 2.291-1 3-.667 0-1-.333-1-1 .333-1 1-1.667 2-2z" transform="translate(-121.157 -47.486)"/><path style="opacity:.016" fill="#8e96b0" d="M245.5 208.5a2.428 2.428 0 0 1 .5-2c.692.937.525 1.603-.5 2z" transform="translate(-121.157 -47.486)"/><path style="opacity:1" fill="#9f6b44" d="M315.5 197.5c.997-.03 1.664.47 2 1.5a127.988 127.988 0 0 0 3 8.5c-1.079 2.376-2.412 2.543-4 .5.928-.388 1.595-1.055 2-2a127.451 127.451 0 0 0-3-8.5z" transform="translate(-121.157 -47.486)"/><path style="opacity:.00799997" fill="#949dbc" d="M457.5 211.5c1.333.667 1.333.667 0 0z" transform="translate(-121.157 -47.486)"/><path style="opacity:.41" fill="#979fbf" d="M460.5 216.5c-1.667 1.333-3.333 1.333-5 0v-1c2.333-3 4-2.667 5 1z" transform="translate(-121.157 -47.486)"/><path style="opacity:.00400002" fill="#959dbc" d="M455.5 215.5c-.667-1.333-.667-1.333 0 0z" transform="translate(-121.157 -47.486)"/><path style="opacity:.00799997" fill="#959dbb" d="M455.5 216.5c-.667.667-.667.667 0 0z" transform="translate(-121.157 -47.486)"/><path style="opacity:.00400002" fill="#959ebc" d="M460.5 216.5c1.333.667 1.333.667 0 0z" transform="translate(-121.157 -47.486)"/><path style="opacity:.00799997" fill="#959dbd" d="M456.5 219.5c.751-1.073 1.751-1.24 3-.5a4.934 4.934 0 0 1-3 .5z" transform="translate(-121.157 -47.486)"/><path style="opacity:1" fill="#100a06" d="M317.5 222.5v7c-7.387.429-11.554-2.904-12.5-10 3.752 2.577 7.919 3.577 12.5 3z" transform="translate(-121.157 -47.486)"/><path style="opacity:1" fill="#f5a76c" d="M401.5 232.5c-4.874-2.885-10.207-4.219-16-4a78.77 78.77 0 0 0-3-13.5l1-2.5c2.393 1.777 4.06 4.11 5 7 1.499-4.977 2.999-9.977 4.5-15a3.647 3.647 0 0 1 1.5-1 20.2 20.2 0 0 1 1.5 6 37.714 37.714 0 0 1 3.5-8c.986 3.356 1.153 6.69.5 10a76.716 76.716 0 0 1 3.5-6c.622 3.626.789 7.293.5 11 1.24-3.417 2.407-3.583 3.5-.5a69.746 69.746 0 0 1-6 16.5z" transform="translate(-121.157 -47.486)"/><path style="opacity:.011" fill="#b4bedf" d="M434.5 222.5c2.466-1.134 5.133-1.301 8-.5a32.462 32.462 0 0 1-8 .5z" transform="translate(-121.157 -47.486)"/><path style="opacity:.012" fill="#b4bfdf" d="M443.5 222.5c1.333.667 1.333.667 0 0z" transform="translate(-121.157 -47.486)"/><path style="opacity:.973" fill="#b6c0e1" d="M452.5 232.5v12c-1.037 1.43-1.704 3.097-2 5a244.418 244.418 0 0 1-15.5 25 147.749 147.749 0 0 0-9.5 21c-.838.342-1.172 1.008-1 2-.904.709-1.237 1.709-1 3-.838.342-1.172 1.008-1 2v1c-.667 0-1 .333-1 1-2.599 7.906-4.266 15.906-5 24v-35c2.66-14.422 6.66-28.589 12-42.5l-.5-1.5c-4.968 11.072-8.801 22.405-11.5 34v-45c.901-.79 1.568-1.79 2-3 .838-.342 1.172-1.008 1-2 5.05-5.693 11.383-9.026 19-10 6.369.509 11.035 3.509 14 9z" transform="translate(-121.157 -47.486)"/><path style="opacity:.00799997" fill="#b4bfdf" d="M423.5 227.5c1.333.667 1.333.667 0 0z" transform="translate(-121.157 -47.486)"/><path style="opacity:1" fill="#ebeef6" d="M248.5 265.5v8a412.161 412.161 0 0 1-5.5-22c-6.23-21.119-15.564-40.453-28-58l3 3c14.726 21.022 24.893 44.022 30.5 69z" transform="translate(-121.157 -47.486)"/><path style="opacity:.00799997" fill="#b4bedf" d="M453.5 232.5h-1c.333-2.667.667-2.667 1 0z" transform="translate(-121.157 -47.486)"/><path style="opacity:1" fill="#f58e1f" d="M292.5 228.5c-1.832 17.726 2.668 34.059 13.5 49 2.439 3.112 5.439 5.445 9 7 1.605-.601 2.938-1.601 4-3 8.706-16.677 10.54-33.677 5.5-51a157.913 157.913 0 0 1 25 8.5 235.155 235.155 0 0 1 21 25.5c-2.561-.053-4.561.947-6 3l.5 1c1.133-1.711 2.633-2.211 4.5-1.5-3.712 2.558-4.878 6.058-3.5 10.5 1.011.837 2.178 1.17 3.5 1-.165-3.35.002-6.683.5-10 1.372-1.41 2.205-3.077 2.5-5a779.87 779.87 0 0 0 9-34h3c5.979.161 11.646 1.494 17 4a84.727 84.727 0 0 1-3 16 1137.058 1137.058 0 0 0-9.5 26 80.745 80.745 0 0 1-9.5 16.5c-2.53 1.422-5.197 1.755-8 1-9.763-5.596-17.763-13.096-24-22.5a31.116 31.116 0 0 0-1 11c-1.572 8.449-2.239 17.116-2 26-.904.709-1.237 1.709-1 3a27.13 27.13 0 0 1-10-2c-.876-.131-1.543.202-2 1a36.746 36.746 0 0 1-3 8 85.625 85.625 0 0 0-15-1.5 47.126 47.126 0 0 0 14 2.5l-2 5c-17.104.323-34.104-1.344-51-5-1.419-.951-3.085-1.284-5-1-6.797-1.635-10.631-5.968-11.5-13a372.322 372.322 0 0 1 4-57c1.602-5.377 4.769-9.544 9.5-12.5a254.452 254.452 0 0 1 21-6.5z" transform="translate(-121.157 -47.486)"/><path style="opacity:.00899999" fill="#d2d5e1" d="M486.5 232.5c3.811-1.145 7.811-1.312 12-.5a72.367 72.367 0 0 1-12 .5z" transform="translate(-121.157 -47.486)"/><path style="opacity:1" fill="#2a1d14" d="M384.5 229.5c0-.667.333-1 1-1 5.793-.219 11.126 1.115 16 4v1c-5.354-2.506-11.021-3.839-17-4z" transform="translate(-121.157 -47.486)"/><path style="opacity:.01" fill="#b4bedf" d="M453.5 232.5c1.098 1.101 1.265 2.434.5 4a8.43 8.43 0 0 1-.5-4z" transform="translate(-121.157 -47.486)"/><path style="opacity:.011" fill="#d2d5e1" d="M485.5 233.5a8.43 8.43 0 0 1-4-.5c1.566-.765 2.899-.598 4 .5z" transform="translate(-121.157 -47.486)"/><path style="opacity:.01" fill="#d2d6e1" d="M499.5 233.5c.751-1.073 1.751-1.24 3-.5a4.934 4.934 0 0 1-3 .5z" transform="translate(-121.157 -47.486)"/><path style="opacity:.984" fill="#d3d6e2" d="M485.5 233.5h14c2.576.988 5.243 1.988 8 3a21.614 21.614 0 0 0 5 4 88.365 88.365 0 0 1 6 11v8c-.934 1.068-1.268 2.401-1 4-.838.342-1.172 1.008-1 2-.838.342-1.172 1.008-1 2-.838.342-1.172 1.008-1 2-.667 0-1 .333-1 1-1.406.473-2.073 1.473-2 3-.667 0-1 .333-1 1-.667 0-1 .333-1 1-.667 0-1 .333-1 1-.667 0-1 .333-1 1-.667 0-1 .333-1 1-.667 0-1 .333-1 1-.667 0-1 .333-1 1-.667 0-1 .333-1 1-.667 0-1 .333-1 1-.667 0-1 .333-1 1-2.254.624-3.921 1.957-5 4-.667 0-1 .333-1 1-.992-.172-1.658.162-2 1-.667 0-1 .333-1 1-.992-.172-1.658.162-2 1-.667 0-1 .333-1 1-1.527-.073-2.527.594-3 2-.992-.172-1.658.162-2 1-.667 0-1 .333-1 1-.992-.172-1.658.162-2 1-1.527-.073-2.527.594-3 2-.992-.172-1.658.162-2 1-.667 0-1 .333-1 1-.992-.172-1.658.162-2 1-.667 0-1 .333-1 1-1.934.61-3.601 1.61-5 3-.667 0-1 .333-1 1-.992-.172-1.658.162-2 1-.667 0-1 .333-1 1-.667 0-1 .333-1 1-.992-.172-1.658.162-2 1-.667 0-1 .333-1 1-1.527-.073-2.527.594-3 2-.667 0-1 .333-1 1-1.73.526-3.064 1.526-4 3-.667 0-1 .333-1 1a21.614 21.614 0 0 0-5 4c-.667 0-1 .333-1 1-.667 0-1 .333-1 1a136.379 136.379 0 0 0-23 25c-.667 0-1 .333-1 1-1.406.473-2.073 1.473-2 3h-1v-14c15.267-27.795 34.6-52.628 58-74.5-.667-.667-1.333-.667-2 0-22.346 21.153-41.013 44.986-56 71.5v-9c.734-8.094 2.401-16.094 5-24 .667 0 1-.333 1-1v-1c.838-.342 1.172-1.008 1-2 .904-.709 1.237-1.709 1-3 .838-.342 1.172-1.008 1-2a434.056 434.056 0 0 1 26-43c.667 0 1-.333 1-1 9.459-8.895 20.459-14.895 33-18z" transform="translate(-121.157 -47.486)"/><path style="opacity:.012" fill="#d2d6e1" d="M507.5 235.5c1.333.667 1.333.667 0 0z" transform="translate(-121.157 -47.486)"/><path style="opacity:.00799997" fill="#d2d6e1" d="M509.5 236.5c1.333.667 1.333.667 0 0z" transform="translate(-121.157 -47.486)"/><path style="opacity:.00400002" fill="#c9cee1" d="M219.5 236.5c.667 0 1 .333 1 1v2h-1c-.667 0-1-.333-1-1-.172-.992.162-1.658 1-2z" transform="translate(-121.157 -47.486)"/><path style="opacity:.01" fill="#b4bfdf" d="M453.5 239.5c1.098 1.101 1.265 2.434.5 4a8.43 8.43 0 0 1-.5-4z" transform="translate(-121.157 -47.486)"/><path style="opacity:.012" fill="#d2d6e1" d="M513.5 240.5c-.667-1.333-.667-1.333 0 0z" transform="translate(-121.157 -47.486)"/><path style="opacity:.00799997" fill="#d2d6e1" d="M513.5 240.5c1.333.667 1.333.667 0 0z" transform="translate(-121.157 -47.486)"/><path style="opacity:.00400002" fill="#c5cbe0" d="m220.5 239.5 2 1c.667 0 1 .333 1 1-.073 1.527.594 2.527 2 3v1c-.667 0-1 .333-1 1h-1c.172-.992-.162-1.658-1-2 .073-1.527-.594-2.527-2-3v-2z" transform="translate(-121.157 -47.486)"/><path style="opacity:.01" fill="#b4bfdf" d="M452.5 244.5c1.025.397 1.192 1.063.5 2a2.428 2.428 0 0 1-.5-2z" transform="translate(-121.157 -47.486)"/><path style="opacity:.016" fill="#d2d6e0" d="M142.5 245.5v1c-.67-.481-.67-.815 0-1z" transform="translate(-121.157 -47.486)"/><path style="opacity:.006" fill="#bbc3e0" d="M225.5 245.5h1c0 1.333-.667 2-2 2v-1c.667 0 1-.333 1-1z" transform="translate(-121.157 -47.486)"/><path style="opacity:.00799997" fill="#d2d5e0" d="M142.5 246.5c1.333.667 1.333.667 0 0z" transform="translate(-121.157 -47.486)"/><path style="opacity:1" fill="#fdf4f1" d="M317.5 222.5h1a32.462 32.462 0 0 0 .5 8l1-2a36.354 36.354 0 0 1 4.5 2c5.04 17.323 3.206 34.323-5.5 51-1.062 1.399-2.395 2.399-4 3-3.561-1.555-6.561-3.888-9-7-10.832-14.941-15.332-31.274-13.5-49 1.412-.666 2.745-.999 4-1 1.105 3.345 3.105 6.178 6 8.5 8.194 4.871 13.194 2.704 15-6.5v-7z" transform="translate(-121.157 -47.486)"/><path style="opacity:.00799997" fill="#d3d5e1" d="M518.5 251.5a4.934 4.934 0 0 1 .5-3c.74 1.249.573 2.249-.5 3z" transform="translate(-121.157 -47.486)"/><path style="opacity:.00799997" fill="#c8cee0" d="M228.5 248.5c.073 1.527-.594 2.527-2 3-.073-1.527.594-2.527 2-3z" transform="translate(-121.157 -47.486)"/><path style="opacity:.00799997" fill="#bec5e0" d="M450.5 249.5c1 .333 1.667 1 2 2-.667 0-1 .333-1 1-.904-.709-1.237-1.709-1-3z" transform="translate(-121.157 -47.486)"/><path style="opacity:.00799997" fill="#d2d6e1" d="M151.5 251.5v1c-2.667-.333-2.667-.667 0-1zM151.5 252.5c1.333.667 1.333.667 0 0z" transform="translate(-121.157 -47.486)"/><path style="opacity:.00799997" fill="#d2d5e1" d="M519.5 259.5c-.163-2.357.003-4.69.5-7 .796 2.539.629 4.872-.5 7z" transform="translate(-121.157 -47.486)"/><path style="opacity:1" fill="#f6f7f9" d="M172.5 225.5c.397-1.025 1.063-1.192 2-.5a340.398 340.398 0 0 1 48.5 49.5c.667.667.667 1.333 0 2a332.129 332.129 0 0 0-50.5-51z" transform="translate(-121.157 -47.486)"/><path style="opacity:.01" fill="#c8cde1" d="M231.5 253.5v2c-.667 0-1 .333-1 1h-1c-.073-1.527.594-2.527 2-3z" transform="translate(-121.157 -47.486)"/><path style="opacity:.012" fill="#d2d6e1" d="M159.5 256.5c-.667.667-.667.667 0 0z" transform="translate(-121.157 -47.486)"/><path style="opacity:.01" fill="#c8cde0" d="M231.5 255.5h1c.073 1.527-.594 2.527-2 3v-2c.667 0 1-.333 1-1z" transform="translate(-121.157 -47.486)"/><path style="opacity:1" fill="#edf0f7" d="M416.5 293.5v-10c2.699-11.595 6.532-22.928 11.5-34l.5 1.5c-5.34 13.911-9.34 28.078-12 42.5z" transform="translate(-121.157 -47.486)"/><path style="opacity:.00899999" fill="#d3d5e1" d="M518.5 259.5h1c-.333 4-.667 4-1 0z" transform="translate(-121.157 -47.486)"/><path style="opacity:.00799997" fill="#d3d5e1" d="M171.5 262.5v1c-2.667-.333-2.667-.667 0-1z" transform="translate(-121.157 -47.486)"/><path style="opacity:.012" fill="#d1d5e0" d="M171.5 263.5c1.333.667 1.333.667 0 0z" transform="translate(-121.157 -47.486)"/><path style="opacity:.00799997" fill="#c8cde1" d="M236.5 262.5v2c-.667 0-1 .333-1 1h-1c-.073-1.527.594-2.527 2-3z" transform="translate(-121.157 -47.486)"/><path style="opacity:.00799997" fill="#d2d5e1" d="M517.5 263.5c1.333.667 1.333 1.333 0 2v-2z" transform="translate(-121.157 -47.486)"/><path style="opacity:.00799997" fill="#c8cde1" d="M236.5 264.5h1a5.727 5.727 0 0 1-1 3h-1v-2c.667 0 1-.333 1-1z" transform="translate(-121.157 -47.486)"/><path style="opacity:.00799997" fill="#d3d6e1" d="M516.5 265.5h1c.172.992-.162 1.658-1 2v-2z" transform="translate(-121.157 -47.486)"/><path style="opacity:.00799997" fill="#b4bedf" d="M150.5 267.5c1.788-1.122 3.788-1.289 6-.5a18.453 18.453 0 0 1-6 .5z" transform="translate(-121.157 -47.486)"/><path style="opacity:.00899999" fill="#b4bedf" d="M164.5 267.5c1.788-1.122 3.788-1.289 6-.5a18.453 18.453 0 0 1-6 .5z" transform="translate(-121.157 -47.486)"/><path style="opacity:.00799997" fill="#d2d6e1" d="M178.5 266.5v1c-2.667-.333-2.667-.667 0-1z" transform="translate(-121.157 -47.486)"/><path style="opacity:.00899999" fill="#b4bfdf" d="M149.5 268.5a4.934 4.934 0 0 1-3-.5c1.249-.74 2.249-.573 3 .5z" transform="translate(-121.157 -47.486)"/><path style="opacity:.976" fill="#b5bfe0" d="M174.5 269.5c1.714 1.238 3.714 1.905 6 2 1.28 1.431 2.947 2.098 5 2 .473 1.406 1.473 2.073 3 2 .342.838 1.008 1.172 2 1 .473 1.406 1.473 2.073 3 2 .473 1.406 1.473 2.073 3 2 0 .667.333 1 1 1 .342.838 1.008 1.172 2 1 0 .667.333 1 1 1 .473 1.406 1.473 2.073 3 2 0 .667.333 1 1 1 .473 1.406 1.473 2.073 3 2 0 .667.333 1 1 1 0 .667.333 1 1 1 .342.838 1.008 1.172 2 1 0 .667.333 1 1 1 0 .667.333 1 1 1 0 .667.333 1 1 1 .473 1.406 1.473 2.073 3 2 0 .667.333 1 1 1 0 .667.333 1 1 1 0 .667.333 1 1 1a579.57 579.57 0 0 0 6 5c0 .667.333 1 1 1 0 .667.333 1 1 1 0 .667.333 1 1 1 4.307 3.972 8.641 7.972 13 12 .667 0 1 .333 1 1 .667 0 1 .333 1 1 .667 0 1 .333 1 1 .667 0 1 .333 1 1 .333 1 1 1.667 2 2 .323 6.19-.01 12.19-1 18a134.289 134.289 0 0 0-20-9c-1.28-1.431-2.947-2.098-5-2-1.714-1.238-3.714-1.905-6-2-3.005-1.777-6.338-2.777-10-3-3.663-1.916-7.663-2.916-12-3-3.044-1.511-6.378-2.178-10-2a36869.646 36869.646 0 0 0-32-6 2507.794 2507.794 0 0 0-12-5 56.483 56.483 0 0 1-10-8c-6.544-13.705-3.21-24.371 10-32 2.053.098 3.72-.569 5-2 1.599.268 2.932-.066 4-1 8.364-1.165 16.698-.832 25 1z" transform="translate(-121.157 -47.486)"/><path style="opacity:.01" fill="#b4bfdf" d="M174.5 268.5a4.934 4.934 0 0 1-3-.5c1.249-.74 2.249-.573 3 .5z" transform="translate(-121.157 -47.486)"/><path style="opacity:.012" fill="#d1d5e0" d="M178.5 267.5c1.333.667 1.333.667 0 0z" transform="translate(-121.157 -47.486)"/><path style="opacity:.00799997" fill="#cacfe0" d="M236.5 267.5c2.198-.091 2.531.575 1 2h-1v-2z" transform="translate(-121.157 -47.486)"/><path style="opacity:.00799997" fill="#d2d6e1" d="M515.5 267.5h1c.172.992-.162 1.658-1 2v-2z" transform="translate(-121.157 -47.486)"/><path style="opacity:.01" fill="#b4bfdf" d="M145.5 269.5a2.428 2.428 0 0 1-2-.5c.937-.692 1.603-.525 2 .5z" transform="translate(-121.157 -47.486)"/><path style="opacity:.00799997" fill="#b5bedf" d="M174.5 269.5v-1c4 .333 4 .667 0 1z" transform="translate(-121.157 -47.486)"/><path style="opacity:.012" fill="#b4bfdf" d="M141.5 269.5c1.333.667 1.333.667 0 0z" transform="translate(-121.157 -47.486)"/><path style="opacity:1" fill="#895012" d="M293.5 268.5c2.688 2.297 4.354 5.297 5 9-2.424-2.508-4.09-5.508-5-9z" transform="translate(-121.157 -47.486)"/><path style="opacity:.012" fill="#d2d6e1" d="M514.5 269.5h1c-.185.67-.519.67-1 0z" transform="translate(-121.157 -47.486)"/><path style="opacity:.012" fill="#b4bfdf" d="M140.5 271.5c-.667-1.333-.667-1.333 0 0z" transform="translate(-121.157 -47.486)"/><path style="opacity:.01" fill="#bec6e0" d="M183.5 269.5v1a5.727 5.727 0 0 1-3 1c.473-1.406 1.473-2.073 3-2z" transform="translate(-121.157 -47.486)"/><path style="opacity:.00400002" fill="#c2c9e0" d="M237.5 269.5h2c-.172.992.162 1.658 1 2 .369 2.493-.297 3.16-2 2 .172-.992-.162-1.658-1-2v-2z" transform="translate(-121.157 -47.486)"/><path style="opacity:1" fill="#7a460e" d="M332.5 249.5c1.39 11.712-1.11 22.712-7.5 33l5-15a76.588 76.588 0 0 0 2.5-18z" transform="translate(-121.157 -47.486)"/><path style="opacity:.012" fill="#d2d6e1" d="M513.5 270.5h1c-.185.67-.519.67-1 0z" transform="translate(-121.157 -47.486)"/><path style="opacity:.012" fill="#c6cce0" d="M183.5 270.5h2c.667 0 1 .333 1 1 .342.838 1.008 1.172 2 1 .667 0 1 .333 1 1 .342.838 1.008 1.172 2 1l1 2h-2c-.342-.838-1.008-1.172-2-1-.473-1.406-1.473-2.073-3-2-1.051-.722-1.718-1.722-2-3z" transform="translate(-121.157 -47.486)"/><path style="opacity:1" fill="#e66f20" d="M293.5 268.5c-2.723-3.986-3.556-3.32-2.5 2 4.617 15.953 14.783 26.786 30.5 32.5a355.484 355.484 0 0 1-35-11.5l-1-5a364.862 364.862 0 0 0 3-28c-.079-5.651-1.413-10.984-4-16l.5-1a7.293 7.293 0 0 1 2 3 673.135 673.135 0 0 1 6.5 24z" transform="translate(-121.157 -47.486)"/><path style="opacity:.00799997" fill="#d2d6e1" d="M512.5 272.5c1.333.667 1.333.667 0 0z" transform="translate(-121.157 -47.486)"/><path style="opacity:1" fill="#d1691f" d="M372.5 263.5c-.295 1.923-1.128 3.59-2.5 5a50.464 50.464 0 0 0-.5 10c-1.322.17-2.489-.163-3.5-1-1.378-4.442-.212-7.942 3.5-10.5-1.867-.711-3.367-.211-4.5 1.5l-.5-1c1.439-2.053 3.439-3.053 6-3l2-1z" transform="translate(-121.157 -47.486)"/><path style="opacity:.016" fill="#d2d6e1" d="M511.5 273.5h1c-.185.67-.519.67-1 0zM510.5 274.5h1c-.185.67-.519.67-1 0z" transform="translate(-121.157 -47.486)"/><path style="opacity:.012" fill="#d2d6e1" d="M509.5 275.5h1c-.185.67-.519.67-1 0z" transform="translate(-121.157 -47.486)"/><path style="opacity:.012" fill="#c7cde0" d="M192.5 276.5h2c.667 0 1 .333 1 1v1h-2l-1-2z" transform="translate(-121.157 -47.486)"/><path style="opacity:.00799997" fill="#d2d5e1" d="M508.5 276.5h1c-.185.67-.519.67-1 0z" transform="translate(-121.157 -47.486)"/><path style="opacity:.00799997" fill="#d1d6e0" d="M507.5 277.5h1c-.185.67-.519.67-1 0z" transform="translate(-121.157 -47.486)"/><path style="opacity:1" fill="#62390d" d="M298.5 277.5c1.946.754 2.779 2.088 2.5 4-1.481-.971-2.315-2.304-2.5-4z" transform="translate(-121.157 -47.486)"/><path style="opacity:.00400002" fill="#d1d6e0" d="M506.5 278.5h1c-.185.67-.519.67-1 0z" transform="translate(-121.157 -47.486)"/><path style="opacity:.00799997" fill="#d1d5e0" d="M505.5 279.5h1c-.185.67-.519.67-1 0z" transform="translate(-121.157 -47.486)"/><path style="opacity:.012" fill="#c4cae0" d="M195.5 278.5h2c.667 0 1 .333 1 1 .342.838 1.008 1.172 2 1 .667 0 1 .333 1 1l1 2h-2c-.667 0-1-.333-1-1-.342-.838-1.008-1.172-2-1-.667 0-1-.333-1-1l-1-2z" transform="translate(-121.157 -47.486)"/><path style="opacity:.00799997" fill="#d2d5e0" d="M504.5 280.5h1c-.185.67-.519.67-1 0z" transform="translate(-121.157 -47.486)"/><path style="opacity:.012" fill="#d1d5e0" d="M503.5 281.5h1c-.185.67-.519.67-1 0z" transform="translate(-121.157 -47.486)"/><path style="opacity:.016" fill="#d2d6e1" d="M502.5 282.5h1c-.185.67-.519.67-1 0zM501.5 283.5h1c-.185.67-.519.67-1 0z" transform="translate(-121.157 -47.486)"/><path style="opacity:.00799997" fill="#b4bedf" d="M125.5 285.5c1.098 1.101 1.265 2.434.5 4a8.43 8.43 0 0 1-.5-4z" transform="translate(-121.157 -47.486)"/><path style="opacity:.016" fill="#d2d6e1" d="M496.5 287.5c1.333.667 1.333.667 0 0z" transform="translate(-121.157 -47.486)"/><path style="opacity:.012" fill="#d1d5e1" d="M495.5 288.5h1c-.185.67-.519.67-1 0z" transform="translate(-121.157 -47.486)"/><path style="opacity:.00799997" fill="#c4cae0" d="M202.5 283.5h2c.667 0 1 .333 1 1 .342.838 1.008 1.172 2 1 .667 0 1 .333 1 1 .667 0 1 .333 1 1 .473 1.406 1.473 2.073 3 2 .667 0 1 .333 1 1 .667 0 1 .333 1 1 .473 1.406 1.473 2.073 3 2 .667 0 1 .333 1 1 .667 0 1 .333 1 1 .667 0 1 .333 1 1 .667 0 1 .333 1 1 .667 0 1 .333 1 1-.342.838-1.008 1.172-2 1-.667 0-1-.333-1-1-.667 0-1-.333-1-1-.667 0-1-.333-1-1-.473-1.406-1.473-2.073-3-2-.667 0-1-.333-1-1-.667 0-1-.333-1-1-.667 0-1-.333-1-1-.342-.838-1.008-1.172-2-1-.667 0-1-.333-1-1-.667 0-1-.333-1-1-.473-1.406-1.473-2.073-3-2-.667 0-1-.333-1-1l-1-2z" transform="translate(-121.157 -47.486)"/><path style="opacity:.00799997" fill="#d2d6e1" d="M493.5 290.5v-1h2c-.342.838-1.008 1.172-2 1z" transform="translate(-121.157 -47.486)"/><path style="opacity:.016" fill="#d2d6e1" d="M492.5 290.5h1c-.185.67-.519.67-1 0z" transform="translate(-121.157 -47.486)"/><path style="opacity:.00400002" fill="#b4bfdf" d="M124.5 291.5c1.333.667 1.333.667 0 0z" transform="translate(-121.157 -47.486)"/><path style="opacity:.006" fill="#d3d5e1" d="M490.5 292.5v-1h2c-.342.838-1.008 1.172-2 1z" transform="translate(-121.157 -47.486)"/><path style="opacity:1" fill="#e87023" d="M398.5 249.5a322.272 322.272 0 0 1-10.5 42c-5.582 9.561-13.082 11.395-22.5 5.5a430.882 430.882 0 0 1-19-15.5 31.116 31.116 0 0 1 1-11c6.237 9.404 14.237 16.904 24 22.5 2.803.755 5.47.422 8-1a80.745 80.745 0 0 0 9.5-16.5 1137.058 1137.058 0 0 1 9.5-26z" transform="translate(-121.157 -47.486)"/><path style="opacity:.016" fill="#d2d6e1" d="M489.5 292.5h1c-.185.67-.519.67-1 0z" transform="translate(-121.157 -47.486)"/><path style="opacity:1" fill="#7b3b11" d="M280.5 291.5a2.428 2.428 0 0 1 2 .5 34.706 34.706 0 0 0-7.5 6.5c.804-2.99 2.637-5.323 5.5-7z" transform="translate(-121.157 -47.486)"/><path style="opacity:.00799997" fill="#d2d6e1" d="M489.5 293.5c-.667.667-.667.667 0 0z" transform="translate(-121.157 -47.486)"/><path style="opacity:.016" fill="#d2d6e1" d="M486.5 294.5c1.333.667 1.333.667 0 0z" transform="translate(-121.157 -47.486)"/><path style="opacity:.00899999" fill="#b4bfdf" d="M125.5 295.5c1.073.751 1.24 1.751.5 3a4.934 4.934 0 0 1-.5-3z" transform="translate(-121.157 -47.486)"/><path style="opacity:.006" fill="#d2d5e1" d="M484.5 296.5v-1h2c-.342.838-1.008 1.172-2 1z" transform="translate(-121.157 -47.486)"/><path style="opacity:.016" fill="#d1d6e1" d="M483.5 296.5h1c-.185.67-.519.67-1 0z" transform="translate(-121.157 -47.486)"/><path style="opacity:.00799997" fill="#d2d5e0" d="M481.5 298.5v-1h2c-.342.838-1.008 1.172-2 1z" transform="translate(-121.157 -47.486)"/><path style="opacity:.012" fill="#d2d6e1" d="M481.5 298.5c-.667.667-.667.667 0 0z" transform="translate(-121.157 -47.486)"/><path style="opacity:.016" fill="#d1d5e0" d="M478.5 299.5c1.333.667 1.333.667 0 0z" transform="translate(-121.157 -47.486)"/><path style="opacity:1" fill="#f6f7f9" d="M416.5 340.5v-3c14.987-26.514 33.654-50.347 56-71.5.667-.667 1.333-.667 2 0-23.4 21.872-42.733 46.705-58 74.5z" transform="translate(-121.157 -47.486)"/><path style="opacity:.00799997" fill="#d2d5e1" d="M476.5 301.5v-1h2c-.342.838-1.008 1.172-2 1z" transform="translate(-121.157 -47.486)"/><path style="opacity:.012" fill="#d2d6e1" d="M475.5 301.5h1c-.185.67-.519.67-1 0z" transform="translate(-121.157 -47.486)"/><path style="opacity:1" fill="#edeff7" d="M138.5 286.5c3.476-1.143 7.142-1.31 11-.5 32.431 7.218 61.764 20.885 88 41-.667.667-1.333.667-2 0-21.548-15.941-45.214-27.941-71-36a118.577 118.577 0 0 0-26-4.5z" transform="translate(-121.157 -47.486)"/><path style="opacity:.00799997" fill="#d3d6e1" d="M473.5 303.5v-1h2c-.342.838-1.008 1.172-2 1z" transform="translate(-121.157 -47.486)"/><path style="opacity:.00899999" fill="#b4bedf" d="M483.5 303.5c4.146-1.147 8.48-1.314 13-.5a84.902 84.902 0 0 1-13 .5z" transform="translate(-121.157 -47.486)"/><path style="opacity:.012" fill="#b4bfdf" d="M130.5 303.5c-.667.667-.667.667 0 0z" transform="translate(-121.157 -47.486)"/><path style="opacity:.012" fill="#d2d6e1" d="M472.5 303.5h1c-.185.67-.519.67-1 0z" transform="translate(-121.157 -47.486)"/><path style="opacity:.00899999" fill="#b4bedf" d="M482.5 304.5a8.43 8.43 0 0 1-4-.5c1.566-.765 2.899-.598 4 .5z" transform="translate(-121.157 -47.486)"/><path style="opacity:.012" fill="#b4bfdf" d="M475.5 305.5c.397-1.025 1.063-1.192 2-.5a2.428 2.428 0 0 1-2 .5z" transform="translate(-121.157 -47.486)"/><path style="opacity:.00400002" fill="#b4bfdf" d="M131.5 306.5c-.667-1.333-.667-1.333 0 0z" transform="translate(-121.157 -47.486)"/><path style="opacity:.00799997" fill="#c5cbe0" d="M226.5 304.5c.342-.838 1.008-1.172 2-1 .667 0 1 .333 1 1 .667 0 1 .333 1 1 .667 0 1 .333 1 1-.342.838-1.008 1.172-2 1-.667 0-1-.333-1-1-.667 0-1-.333-1-1-.667 0-1-.333-1-1z" transform="translate(-121.157 -47.486)"/><path style="opacity:.00400002" fill="#b4bfdf" d="M131.5 306.5c1.333.667 1.333.667 0 0z" transform="translate(-121.157 -47.486)"/><path style="opacity:.977" fill="#b6bfe0" d="M482.5 304.5c9.961-1.217 19.294.616 28 5.5 2.954 2.441 5.287 5.275 7 8.5-.268 1.599.066 2.932 1 4v6c-.904.709-1.237 1.709-1 3-.838.342-1.172 1.008-1 2-.838.342-1.172 1.008-1 2-.667 0-1 .333-1 1-.667 0-1 .333-1 1-.667 0-1 .333-1 1-.667 0-1 .333-1 1-.667 0-1 .333-1 1-.992-.172-1.658.162-2 1-.667 0-1 .333-1 1-.992-.172-1.658.162-2 1-.992-.172-1.658.162-2 1-.992-.172-1.658.162-2 1-.992-.172-1.658.162-2 1-.992-.172-1.658.162-2 1-1.291-.237-2.291.096-3 1-1.291-.237-2.291.096-3 1a161.173 161.173 0 0 0-21 5c-19.487 4.05-37.821 11.05-55 21a122.16 122.16 0 0 0 1-20c.667 0 1-.333 1-1 1.406-.473 2.073-1.473 2-3 .667 0 1-.333 1-1 8.36-8.028 16.693-16.028 25-24 .667 0 1-.333 1-1 .667 0 1-.333 1-1a21.614 21.614 0 0 0 5-4c.667 0 1-.333 1-1a308.607 308.607 0 0 0 4-3c.667 0 1-.333 1-1 1.21-.432 2.21-1.099 3-2 .667 0 1-.333 1-1 .992.172 1.658-.162 2-1 .667 0 1-.333 1-1 .992.172 1.658-.162 2-1 .992.172 1.658-.162 2-1a180.038 180.038 0 0 0 13-4z" transform="translate(-121.157 -47.486)"/><path style="opacity:.00799997" fill="#c0c7e0" d="M467.5 306.5c1.333 0 2 .667 2 2-.992-.172-1.658.162-2 1-.992-.172-1.658.162-2 1-.667 0-1 .333-1 1h-2v-1c.667 0 1-.333 1-1 .667 0 1-.333 1-1 .992.172 1.658-.162 2-1 .667 0 1-.333 1-1z" transform="translate(-121.157 -47.486)"/><path style="opacity:1" fill="#f5a76e" d="M344.5 307.5v4c3.593 1.467 6.926 3.467 10 6 .734 1.208 1.067 2.541 1 4-1.175-.219-2.175.114-3 1 2.078 1.928 2.745 4.095 2 6.5-.667.667-1.333.667-2 0a20.499 20.499 0 0 0-2.5-3.5c.498 2.027.331 4.027-.5 6l-6-7-1 .5c2.632 2.066 3.299 4.566 2 7.5a43.836 43.836 0 0 0-2-1c-.359-1.871-1.359-3.371-3-4.5a57.168 57.168 0 0 0-13-3.5c3.665-4.332 5.998-9.332 7-15a27.13 27.13 0 0 0 10 2c-.237-1.291.096-2.291 1-3z" transform="translate(-121.157 -47.486)"/><path style="opacity:.006" fill="#b3bfde" d="M140.5 311.5v1c-2.667-.333-2.667-.667 0-1z" transform="translate(-121.157 -47.486)"/><path style="opacity:.012" fill="#b4bfdf" d="M140.5 312.5c1.333.667 1.333.667 0 0z" transform="translate(-121.157 -47.486)"/><path style="opacity:1" fill="#1c130a" d="M333.5 308.5c-1.002 5.668-3.335 10.668-7 15h-1l2-5c.667 0 1-.333 1-1a36.746 36.746 0 0 0 3-8c.457-.798 1.124-1.131 2-1z" transform="translate(-121.157 -47.486)"/><path style="opacity:.00400002" fill="#bdc5e0" d="M460.5 311.5h2v1c-.667 0-1 .333-1 1-.992.172-1.658-.162-2-1 .667 0 1-.333 1-1z" transform="translate(-121.157 -47.486)"/><path style="opacity:.00400002" fill="#bec6e0" d="M456.5 314.5c.992-.172 1.658.162 2 1-.667 0-1 .333-1 1-.992.172-1.658-.162-2-1 .667 0 1-.333 1-1z" transform="translate(-121.157 -47.486)"/><path style="opacity:.00799997" fill="#b4bee0" d="M152.5 316.5v1c-4-.333-4-.667 0-1z" transform="translate(-121.157 -47.486)"/><path style="opacity:1" fill="#af6514" d="M328.5 317.5c0 .667-.333 1-1 1a47.126 47.126 0 0 1-14-2.5 85.625 85.625 0 0 1 15 1.5z" transform="translate(-121.157 -47.486)"/><path style="opacity:.01" fill="#b4bfdf" d="M517.5 318.5a2.428 2.428 0 0 1 .5-2c.692.937.525 1.603-.5 2z" transform="translate(-121.157 -47.486)"/><path style="opacity:.00899999" fill="#b5bedf" d="M152.5 317.5a4.934 4.934 0 0 1 3 .5c-1.249.74-2.249.573-3-.5z" transform="translate(-121.157 -47.486)"/><path style="opacity:.00899999" fill="#b4bfdf" d="M156.5 319.5c.751-1.073 1.751-1.24 3-.5a4.934 4.934 0 0 1-3 .5z" transform="translate(-121.157 -47.486)"/><path style="opacity:.00899999" fill="#b4bedf" d="M160.5 320.5c1.101-1.098 2.434-1.265 4-.5a8.43 8.43 0 0 1-4 .5z" transform="translate(-121.157 -47.486)"/><path style="opacity:1" fill="#bac2df" d="M256.5 79.5v238h13c1.915-.284 3.581.049 5 1a24.935 24.935 0 0 0-7 .5c19.841 5.502 40.008 7.668 60.5 6.5 5.453.726 10.286 2.726 14.5 6 .65.304 1.317.637 2 1 1.299-2.934.632-5.434-2-7.5l1-.5 6 7c.831-1.973.998-3.973.5-6a20.499 20.499 0 0 1 2.5 3.5c.667.667 1.333.667 2 0 .745-2.405.078-4.572-2-6.5.825-.886 1.825-1.219 3-1 .067-1.459-.266-2.792-1-4h55c.167 16.337 0 32.67-.5 49-1.568 7.237-5.734 12.404-12.5 15.5a1978.067 1978.067 0 0 1-125 1c-8.239-2.573-13.405-8.073-15.5-16.5-.832-95.834-.666-191.501.5-287z" transform="translate(-121.157 -47.486)"/><path style="opacity:.00799997" fill="#bec5e0" d="M451.5 318.5c.992-.172 1.658.162 2 1-.667 0-1 .333-1 1-.992.172-1.658-.162-2-1 .667 0 1-.333 1-1z" transform="translate(-121.157 -47.486)"/><path style="opacity:.00899999" fill="#b4bfdf" d="M518.5 322.5a4.934 4.934 0 0 1 .5-3c.74 1.249.573 2.249-.5 3z" transform="translate(-121.157 -47.486)"/><path style="opacity:.00899999" fill="#b4bedf" d="M165.5 321.5c1.446-1.113 3.113-1.28 5-.5a12.93 12.93 0 0 1-5 .5z" transform="translate(-121.157 -47.486)"/><path style="opacity:.00899999" fill="#b4bee0" d="M171.5 322.5c1.788-1.122 3.788-1.289 6-.5a18.453 18.453 0 0 1-6 .5z" transform="translate(-121.157 -47.486)"/><path style="opacity:.00899999" fill="#b4bedf" d="M184.5 322.5c-1.446 1.113-3.113 1.28-5 .5a12.93 12.93 0 0 1 5-.5z" transform="translate(-121.157 -47.486)"/><path style="opacity:.01" fill="#b4bfdf" d="M185.5 324.5c1.101-1.098 2.434-1.265 4-.5a8.43 8.43 0 0 1-4 .5z" transform="translate(-121.157 -47.486)"/><path style="opacity:.006" fill="#b4bedf" d="M519.5 323.5c1.098 1.101 1.265 2.434.5 4a8.43 8.43 0 0 1-.5-4z" transform="translate(-121.157 -47.486)"/><path style="opacity:.00799997" fill="#b4bedf" d="M194.5 324.5c-1.101 1.098-2.434 1.265-4 .5a8.43 8.43 0 0 1 4-.5z" transform="translate(-121.157 -47.486)"/><path style="opacity:1" fill="#9ba0be" d="M274.5 318.5c16.896 3.656 33.896 5.323 51 5h1a57.168 57.168 0 0 1 13 3.5c1.641 1.129 2.641 2.629 3 4.5-4.214-3.274-9.047-5.274-14.5-6-20.492 1.168-40.659-.998-60.5-6.5a24.935 24.935 0 0 1 7-.5z" transform="translate(-121.157 -47.486)"/><path style="opacity:.016" fill="#bfc6e0" d="M445.5 323.5c.992-.172 1.658.162 2 1-.667 0-1 .333-1 1-.667 0-1 .333-1 1-.992.172-1.658-.162-2-1 .667 0 1-.333 1-1 .667 0 1-.333 1-1z" transform="translate(-121.157 -47.486)"/><path style="opacity:.00899999" fill="#b5bedf" d="M195.5 326.5c.751-1.073 1.751-1.24 3-.5a4.934 4.934 0 0 1-3 .5z" transform="translate(-121.157 -47.486)"/><path style="opacity:.00899999" fill="#b4bedf" d="M199.5 327.5c.751-1.073 1.751-1.24 3-.5a4.934 4.934 0 0 1-3 .5z" transform="translate(-121.157 -47.486)"/><path style="opacity:.00899999" fill="#b4bfdf" d="M206.5 327.5c-.751 1.073-1.751 1.24-3 .5a4.934 4.934 0 0 1 3-.5z" transform="translate(-121.157 -47.486)"/><path style="opacity:.00799997" fill="#b5bedf" d="M518.5 328.5c1.333 1 1.333 2 0 3v-3z" transform="translate(-121.157 -47.486)"/><path style="opacity:.00899999" fill="#b4bee0" d="M216.5 330.5c-.751 1.073-1.751 1.24-3 .5a4.934 4.934 0 0 1 3-.5z" transform="translate(-121.157 -47.486)"/><path style="opacity:.00799997" fill="#b4bfdf" d="M517.5 331.5h1c.172.992-.162 1.658-1 2v-2zM222.5 332.5v1c-4-.333-4-.667 0-1zM222.5 333.5a2.428 2.428 0 0 1 2 .5c-.937.692-1.603.525-2-.5z" transform="translate(-121.157 -47.486)"/><path style="opacity:.00799997" fill="#b4bedf" d="M516.5 333.5h1c.172.992-.162 1.658-1 2v-2z" transform="translate(-121.157 -47.486)"/><path style="opacity:.757" fill="#ced1dc" d="M155.5 338.5c1.752 6.181 2.419 12.514 2 19-.838.342-1.172 1.008-1 2-.992-.172-1.658.162-2 1h-1c.172-.992-.162-1.658-1-2-4.584-5.169-7.584-11.169-9-18 3.12-6.829 7.12-7.496 12-2z" transform="translate(-121.157 -47.486)"/><path style="opacity:.01" fill="#b4bedf" d="M227.5 334.5v1c-2.667-.333-2.667-.667 0-1z" transform="translate(-121.157 -47.486)"/><path style="opacity:.00799997" fill="#b5bfdf" d="M227.5 335.5a2.428 2.428 0 0 1 2 .5c-.937.692-1.603.525-2-.5z" transform="translate(-121.157 -47.486)"/><path style="opacity:.012" fill="#b4bfdf" d="M515.5 335.5h1c-.185.67-.519.67-1 0z" transform="translate(-121.157 -47.486)"/><path style="opacity:.00400002" fill="#d2d6e1" d="M156.5 338.5h-1c.333-2.667.667-2.667 1 0z" transform="translate(-121.157 -47.486)"/><path style="opacity:.016" fill="#b4bfde" d="M514.5 336.5h1c-.185.67-.519.67-1 0z" transform="translate(-121.157 -47.486)"/><path style="opacity:.016" fill="#b3bfdf" d="M513.5 337.5h1c-.185.67-.519.67-1 0z" transform="translate(-121.157 -47.486)"/><path style="opacity:.01" fill="#d3d6e1" d="M143.5 340.5c-1.025-.397-1.192-1.063-.5-2 .464.594.631 1.261.5 2z" transform="translate(-121.157 -47.486)"/><path style="opacity:.012" fill="#d2d6e1" d="M156.5 338.5c1.333.667 1.333.667 0 0z" transform="translate(-121.157 -47.486)"/><path style="opacity:.016" fill="#b3bfdf" d="M512.5 338.5h1c-.185.67-.519.67-1 0z" transform="translate(-121.157 -47.486)"/><path style="opacity:.016" fill="#b3bfde" d="M511.5 339.5h1c-.185.67-.519.67-1 0z" transform="translate(-121.157 -47.486)"/><path style="opacity:.01" fill="#d2d5e1" d="M157.5 340.5c1.025.397 1.192 1.063.5 2a2.428 2.428 0 0 1-.5-2z" transform="translate(-121.157 -47.486)"/><path style="opacity:.012" fill="#b4bfdf" d="M510.5 340.5h1c-.185.67-.519.67-1 0z" transform="translate(-121.157 -47.486)"/><path style="opacity:.006" fill="#b4bfdf" d="M508.5 342.5v-1h2c-.342.838-1.008 1.172-2 1z" transform="translate(-121.157 -47.486)"/><path style="opacity:.012" fill="#b3bfdf" d="M507.5 342.5h1c-.185.67-.519.67-1 0z" transform="translate(-121.157 -47.486)"/><path style="opacity:.00899999" fill="#d2d5e1" d="M158.5 343.5c1.147 4.146 1.314 8.48.5 13a84.902 84.902 0 0 1-.5-13z" transform="translate(-121.157 -47.486)"/><path style="opacity:1" fill="#959dbc" d="M375.5 335.5c14.049.112 20.215 7.112 18.5 21-5.073 9.691-12.573 12.191-22.5 7.5-5.761-5.237-7.595-11.737-5.5-19.5 2.406-3.908 5.572-6.908 9.5-9z" transform="translate(-121.157 -47.486)"/><path style="opacity:.006" fill="#b4bedf" d="M505.5 344.5v-1h2c-.342.838-1.008 1.172-2 1z" transform="translate(-121.157 -47.486)"/><path style="opacity:1" fill="#7981a0" d="M317.5 337.5a9.86 9.86 0 0 1 6 1c-1.545.952-3.212 1.285-5 1 .126 3.095 1.793 4.928 5 5.5 1.26 5.89-1.074 7.723-7 5.5 1.545-.952 3.212-1.285 5-1v-4c-4.84-.778-6.173-3.445-4-8z" transform="translate(-121.157 -47.486)"/><path style="opacity:1" fill="#727a99" d="M335.5 341.5c1.725.778 3.391 1.111 5 1a11.38 11.38 0 0 1-2.5 2 26.724 26.724 0 0 1-1.5 7 25.879 25.879 0 0 1-1-10z" transform="translate(-121.157 -47.486)"/><path style="opacity:.00799997" fill="#b4bedf" d="M503.5 345.5v-1h2c-.342.838-1.008 1.172-2 1zM501.5 346.5v-1h2c-.342.838-1.008 1.172-2 1z" transform="translate(-121.157 -47.486)"/><path style="opacity:1" fill="#7f87a6" d="M342.5 341.5c2.544-.396 4.711.271 6.5 2 .497 2.646.664 5.313.5 8-2.619.268-5.119-.065-7.5-1-.961-3.726.539-5.892 4.5-6.5-1.937-.122-3.27-.955-4-2.5z" transform="translate(-121.157 -47.486)"/><path style="opacity:.00799997" fill="#b4bfdf" d="M499.5 347.5v-1h2c-.342.838-1.008 1.172-2 1z" transform="translate(-121.157 -47.486)"/><path style="opacity:.00799997" fill="#b5bee0" d="M497.5 347.5h2c-.667 1.333-1.333 1.333-2 0z" transform="translate(-121.157 -47.486)"/><path style="opacity:1" fill="#838aaa" d="M326.5 341.5c2.544-.396 4.711.271 6.5 2 .497 2.646.664 5.313.5 8-2.619.268-5.119-.065-7.5-1-.498-3.387 1.002-5.553 4.5-6.5-1.937-.122-3.27-.955-4-2.5z" transform="translate(-121.157 -47.486)"/><path style="opacity:.012" fill="#b4bfdf" d="M494.5 349.5v-1c2.667.333 2.667.667 0 1z" transform="translate(-121.157 -47.486)"/><path style="opacity:.00799997" fill="#d2d5e2" d="M179.5 350.5a12.93 12.93 0 0 1-5-.5c1.887-.78 3.554-.613 5 .5z" transform="translate(-121.157 -47.486)"/><path style="opacity:.00899999" fill="#b4bfdf" d="M491.5 350.5v-1h3c-.709.904-1.709 1.237-3 1z" transform="translate(-121.157 -47.486)"/><path style="opacity:.00400002" fill="#d2d6e1" d="M179.5 350.5c1.333.667 1.333.667 0 0z" transform="translate(-121.157 -47.486)"/><path style="opacity:1" fill="#ebebeb" d="M372.5 344.5h15v10c-5.167.273-10.167.273-15 0v-10z" transform="translate(-121.157 -47.486)"/><path style="opacity:.00799997" fill="#b4bfdf" d="M491.5 350.5c-.751 1.073-1.751 1.24-3 .5a4.934 4.934 0 0 1 3-.5z" transform="translate(-121.157 -47.486)"/><path style="opacity:.00899999" fill="#b4bee0" d="M484.5 352.5c.751-1.073 1.751-1.24 3-.5a4.934 4.934 0 0 1-3 .5z" transform="translate(-121.157 -47.486)"/><path style="opacity:.5" fill="#d2d5e0" d="M179.5 351.5a6.547 6.547 0 0 0 3 3c-.067 1.459.266 2.792 1 4-.838.342-1.172 1.008-1 2-.667 0-1 .333-1 1-.667 0-1 .333-1 1-1.291-.237-2.291.096-3 1-4.324.427-8.658.761-13 1 0-.667-.333-1-1-1 2.805-7.483 8.138-11.483 16-12z" transform="translate(-121.157 -47.486)"/><path style="opacity:.012" fill="#d2d6e1" d="M183.5 354.5c-.667-1.333-.667-1.333 0 0z" transform="translate(-121.157 -47.486)"/><path style="opacity:1" fill="#6f7796" d="M283.5 335.5c14.682 1.172 20.182 8.838 16.5 23-5.575 7.852-12.741 9.686-21.5 5.5-5.615-4.968-7.448-11.135-5.5-18.5 2.106-4.943 5.606-8.276 10.5-10z" transform="translate(-121.157 -47.486)"/><path style="opacity:1" fill="#e9eaec" d="M278.5 346.5c6.009-.166 12.009.001 18 .5 2.917 5.285 1.25 8.118-5 8.5v-4h-8c-.28 3.725-2.28 4.892-6 3.5-2.685-3.117-2.352-5.95 1-8.5z" transform="translate(-121.157 -47.486)"/><path style="opacity:.00899999" fill="#bcc4e0" d="M477.5 355.5h-2c.704-1.844 2.037-2.344 4-1.5-.916.278-1.582.778-2 1.5z" transform="translate(-121.157 -47.486)"/><path style="opacity:.00700001" fill="#d3d6e1" d="M135.5 355.5c.751-1.073 1.751-1.24 3-.5a4.934 4.934 0 0 1-3 .5z" transform="translate(-121.157 -47.486)"/><path style="opacity:.00799997" fill="#d2d6e1" d="M183.5 354.5c1.025.397 1.192 1.063.5 2a2.428 2.428 0 0 1-.5-2z" transform="translate(-121.157 -47.486)"/><path style="opacity:.00899999" fill="#bcc4e0" d="M470.5 354.5c1.792-.134 3.458.199 5 1v1c-1.903-.296-3.57-.963-5-2z" transform="translate(-121.157 -47.486)"/><path style="opacity:.012" fill="#d2d6e0" d="M139.5 355.5c1.333.667 1.333.667 0 0z" transform="translate(-121.157 -47.486)"/><path style="opacity:.00799997" fill="#d2d6e1" d="M477.5 355.5c1.333.667 1.333.667 0 0z" transform="translate(-121.157 -47.486)"/><path style="opacity:.767" fill="#ced1dd" d="M149.5 367.5v2a72.032 72.032 0 0 0-11-1 38.715 38.715 0 0 0-5-2.5c-3.317-4.71-2.15-7.877 3.5-9.5 5.587 2.089 9.753 5.755 12.5 11z" transform="translate(-121.157 -47.486)"/><path style="opacity:.00799997" fill="#d2d5e0" d="M141.5 356.5c1.333.667 1.333.667 0 0z" transform="translate(-121.157 -47.486)"/><path style="opacity:.00799997" fill="#cfd2de" d="M157.5 357.5c1.025.397 1.192 1.063.5 2a2.428 2.428 0 0 1-.5-2z" transform="translate(-121.157 -47.486)"/><path style="opacity:.00799997" fill="#d2d6e1" d="M183.5 358.5c1.333.667 1.333 1.333 0 2v-2zM129.5 359.5c1.025.397 1.192 1.063.5 2a2.428 2.428 0 0 1-.5-2z" transform="translate(-121.157 -47.486)"/><path style="opacity:.00400002" fill="#bfc1cc" d="M152.5 358.5v2c-1.333-.667-1.333-1.333 0-2z" transform="translate(-121.157 -47.486)"/><path style="opacity:.01" fill="#d2d6e1" d="M481.5 361.5a2.428 2.428 0 0 1 .5-2c.692.937.525 1.603-.5 2z" transform="translate(-121.157 -47.486)"/><path style="opacity:.00799997" fill="#d2d6e1" d="M182.5 360.5h1c-.185.67-.519.67-1 0z" transform="translate(-121.157 -47.486)"/><path style="opacity:.00499998" fill="#161617" d="M152.5 360.5h1c-.333 6.667-.667 6.667-1 0z" transform="translate(-121.157 -47.486)"/><path style="opacity:.00499998" d="M159.5 366.5c-.838.342-1.172 1.008-1 2h-1c-.163-2.357.003-4.69.5-7a27.603 27.603 0 0 0 1.5 5z" transform="translate(-121.157 -47.486)"/><path style="opacity:.00799997" fill="#75787d" d="M161.5 361.5c1.333.667 1.333.667 0 0z" transform="translate(-121.157 -47.486)"/><path style="opacity:.00799997" fill="#d2d6e1" d="M181.5 361.5h1c-.185.67-.519.67-1 0z" transform="translate(-121.157 -47.486)"/><path style="opacity:.00799997" fill="#d2d5e1" d="M129.5 362.5c1.025.397 1.192 1.063.5 2a2.428 2.428 0 0 1-.5-2z" transform="translate(-121.157 -47.486)"/><path style="opacity:.00400002" fill="#2b2c2e" d="M161.5 362.5c-.667.667-.667.667 0 0z" transform="translate(-121.157 -47.486)"/><path style="opacity:.00799997" fill="#d2d6e1" d="M180.5 362.5h1c-.185.67-.519.67-1 0z" transform="translate(-121.157 -47.486)"/><path style="opacity:.012" fill="#d2d5e1" d="M482.5 362.5c1.138 2.804 1.305 5.804.5 9a40.914 40.914 0 0 1-.5-9z" transform="translate(-121.157 -47.486)"/><path style="opacity:.00799997" fill="#d2d6e1" d="M177.5 364.5v-1c2.667.333 2.667.667 0 1z" transform="translate(-121.157 -47.486)"/><path style="opacity:.00799997" fill="#d2d5e2" d="M177.5 364.5c-1.446 1.113-3.113 1.28-5 .5a12.93 12.93 0 0 1 5-.5z" transform="translate(-121.157 -47.486)"/><path style="opacity:.012" fill="#1a1b1c" d="M163.5 365.5c1.333.667 1.333.667 0 0z" transform="translate(-121.157 -47.486)"/><path style="opacity:.00400002" fill="#d2d4e0" d="M165.5 366.5c1.446-1.113 3.113-1.28 5-.5a12.93 12.93 0 0 1-5 .5z" transform="translate(-121.157 -47.486)"/><path style="opacity:.00899999" fill="#d2d6e1" d="M491.5 366.5c1.101-1.098 2.434-1.265 4-.5a8.43 8.43 0 0 1-4 .5z" transform="translate(-121.157 -47.486)"/><path style="opacity:.00400002" d="M162.5 367.5c1.333.667 1.333.667 0 0z" transform="translate(-121.157 -47.486)"/><path style="opacity:.00899999" fill="#d2d6e1" d="M138.5 368.5v1c-4-.333-4-.667 0-1z" transform="translate(-121.157 -47.486)"/><path style="opacity:.00799997" d="M153.5 369.5c-.667-1.333-.667-1.333 0 0zM161.5 368.5h1c-.185.67-.519.67-1 0z" transform="translate(-121.157 -47.486)"/><path style="opacity:1" fill="#cbced9" d="M475.5 356.5h2a802.777 802.777 0 0 1 4 5 45.782 45.782 0 0 1-1 12h-2c-2.908-3.315-4.908-7.148-6-11.5.113-2.399 1.113-4.232 3-5.5z" transform="translate(-121.157 -47.486)"/><path style="opacity:.657" fill="#cdd0dc" d="M497.5 373.5c-.667 0-1 .333-1 1-.992-.172-1.658.162-2 1-3.21.251-6.21.251-9 0v-1c1.372-3.538 3.872-5.872 7.5-7 3.562.401 5.062 2.401 4.5 6z" transform="translate(-121.157 -47.486)"/><path style="opacity:.01" fill="#d3d5e2" d="M138.5 369.5a18.453 18.453 0 0 1 6 .5c-2.212.789-4.212.622-6-.5z" transform="translate(-121.157 -47.486)"/><path style="opacity:.00799997" d="M153.5 369.5c1.333.667 1.333.667 0 0z" transform="translate(-121.157 -47.486)"/><path style="opacity:.00899999" fill="#d2d5e1" d="M498.5 373.5a8.43 8.43 0 0 1 .5-4c.765 1.566.598 2.899-.5 4z" transform="translate(-121.157 -47.486)"/><path style="opacity:.00799997" d="M160.5 370.5c1.333.667 1.333.667 0 0zM247.5 370.5a12.93 12.93 0 0 1-.5 5c-.78-1.887-.613-3.554.5-5z" transform="translate(-121.157 -47.486)"/><path style="opacity:.646" fill="#c8cbd4" d="M479.5 380.5c.16 1.653.826 2.986 2 4v1h-2c.172-.992-.162-1.658-1-2a18.473 18.473 0 0 0-2-3.5 192.214 192.214 0 0 1-11-3c-1.381-5.616.619-7.283 6-5a94.334 94.334 0 0 1 8 8.5z" transform="translate(-121.157 -47.486)"/><path style="opacity:.00400002" fill="#b4bfdf" d="M513.5 370.5c1.333.667 1.333.667 0 0z" transform="translate(-121.157 -47.486)"/><path style="opacity:.00799997" fill="#b4bfdf" d="M513.5 371.5v1c-.67-.481-.67-.815 0-1z" transform="translate(-121.157 -47.486)"/><path style="opacity:.00799997" d="M151.5 372.5c-.667.667-.667.667 0 0zM159.5 372.5c1.333.667 1.333.667 0 0z" transform="translate(-121.157 -47.486)"/><path style="opacity:.464" fill="#b2bbdc" d="M175.5 373.5a5.727 5.727 0 0 0 1 3c-.838.342-1.172 1.008-1 2-.973 1.639-2.306 2.973-4 4h-1c-1.428-4.051-.428-7.384 3-10 .683.363 1.35.696 2 1z" transform="translate(-132.657 -73.486)"/><path style="opacity:.00400002" fill="#b3bede" d="M176.5 373.5c-.667-1.333-.667-1.333 0 0z" transform="translate(-121.157 -47.486)"/><path style="opacity:.472" fill="#b3bcdc" d="M513.5 372.5c.996-.086 1.829.248 2.5 1a12.93 12.93 0 0 1 .5 5c-.667 0-1 .333-1 1a10.165 10.165 0 0 1-3 3h-2c-.478-3.838.522-7.171 3-10z" transform="translate(-121.157 -47.486)"/><path style="opacity:.00799997" fill="#b4bfde" d="M176.5 373.5c1.333.667 1.333.667 0 0z" transform="translate(-121.157 -47.486)"/><path style="opacity:.197" fill="#080808" d="M478.5 373.5h2c-.237 1.291.096 2.291 1 3 .333 2.667.667 2.667 1 0 .667 0 1-.333 1-1l2-1v1a5.727 5.727 0 0 0-1 3c-.667 0-1 .333-1 1-.838.342-1.172 1.008-1 2-.904.709-1.237 1.709-1 3-1.174-1.014-1.84-2.347-2-4a51.569 51.569 0 0 0-1-7z" transform="translate(-121.157 -47.486)"/><path style="opacity:.00799997" fill="#d1d5e1" d="M497.5 373.5h1c-.185.67-.519.67-1 0z" transform="translate(-121.157 -47.486)"/><path style="opacity:.00799997" fill="#b4bedf" d="M517.5 378.5a12.93 12.93 0 0 1 .5-5c.78 1.887.613 3.554-.5 5z" transform="translate(-121.157 -47.486)"/><path style="opacity:.00799997" fill="#4b4c50" d="M483.5 375.5c-.667 0-1 .333-1 1h-1c.532-2.96 1.199-3.293 2-1z" transform="translate(-121.157 -47.486)"/><path style="opacity:.00799997" fill="#d2d5e1" d="M496.5 374.5h1c-.185.67-.519.67-1 0z" transform="translate(-121.157 -47.486)"/></svg>